<?xml version="1.0" encoding="UTF-8"?><svg id="_イヤー_2" xmlns="http://www.w3.org/2000/svg" viewBox="0 0 505.06 198.75"><defs><style>.cls-1{fill:#fff;}.cls-2{opacity:.33;}.cls-3{fill:#41495f;}</style></defs><g id="_イヤー_1-2"><rect class="cls-3" width="505.06" height="198.75"/><g class="cls-2"><g><path class="cls-1" d="M391.98,188.24c-1.2,4.2-3.92,5.88-7.56,5.88-5.2,0-8.4-4-8.4-10.39s3.52-10.43,8.59-10.43c4.36,0,6.72,2.96,7.36,6.04h-.84c-.8-3-2.72-5.32-6.6-5.32-5.12,0-7.68,4.56-7.68,9.71,0,5.52,2.52,9.67,7.6,9.67,3.44,0,5.64-1.84,6.72-5.16h.8Z"/><path class="cls-1" d="M412.77,183.68c0,6.68-3.52,10.51-8.8,10.51s-8.59-4.04-8.59-10.43c0-6.88,3.88-10.55,8.79-10.55s8.6,3.84,8.6,10.47Zm-16.55,.04c0,5.28,2.64,9.75,7.75,9.75s7.96-4.2,7.96-9.75-2.76-9.79-7.84-9.79-7.88,4.56-7.88,9.79Z"/><path class="cls-1" d="M418.17,178.6c0-1.96-.04-4.4-.04-4.84h.8c.04,.92,.08,2.64,.04,5,.72-2.16,2.76-5.48,7.56-5.48,3.32,0,6.72,1.92,6.72,7.68v12.67h-.84v-12.59c0-3.96-1.92-7-6-7-4.76,0-7.44,4-7.44,8.67v10.91h-.8v-15.03Z"/><path class="cls-1" d="M439.11,188.36c.68,3.36,2.64,5.04,6.56,5.04s5.96-2.08,5.96-4.6-1.04-4-6.16-5.36c-5-1.32-6.12-2.76-6.12-5.32s1.92-4.84,6.16-4.84,6.28,2.4,6.6,5.4h-.8c-.32-2.2-1.76-4.68-5.84-4.68-3.84,0-5.32,2-5.32,4.04,0,2.32,1.08,3.56,5.64,4.72,5.2,1.32,6.68,3.04,6.68,5.96,0,3.32-2.68,5.4-6.8,5.4-4.68,0-6.8-2.24-7.36-5.76h.8Z"/><path class="cls-1" d="M473.53,183.68c0,6.68-3.52,10.51-8.8,10.51s-8.59-4.04-8.59-10.43c0-6.88,3.88-10.55,8.79-10.55s8.6,3.84,8.6,10.47Zm-16.55,.04c0,5.28,2.64,9.75,7.75,9.75s7.96-4.2,7.96-9.75-2.76-9.79-7.84-9.79-7.88,4.56-7.88,9.79Z"/><path class="cls-1" d="M478.93,193.63v-30.02h.8v30.02h-.8Z"/><path class="cls-1" d="M485.92,183.48c0,6.2,3.08,9.83,7.4,9.83,3.92,0,5.8-2.12,6.96-4.72h.8c-1.2,3.12-3.48,5.44-7.72,5.44-6.12,0-8.24-5.48-8.24-10.39,0-6.36,3.44-10.35,8.32-10.35,6.16,0,8.08,5.4,8.08,9.19,0,.44,0,.56-.04,1h-15.55Zm14.83-.72c0-4.8-2.4-8.75-7.36-8.75-4.4,0-7.2,3.64-7.44,8.75h14.79Z"/></g></g></g></svg>