<?xml version="1.0" encoding="UTF-8"?><svg id="trash-closed" xmlns="http://www.w3.org/2000/svg" viewBox="0 0 85.04 113.39"><defs><style>.cls-1{fill:#fff;}.cls-2{fill:#4babad;}</style></defs><g><path class="cls-2" d="M6.92,42.16l9.27,62.8c.46,3.14,2.72,5.42,5.36,5.42H63.35c2.64,0,4.9-2.29,5.36-5.42l9.27-62.8H6.92Z"/><path class="cls-2" d="M79.09,29.49h-31.4l-1.48-5.89c-.18-.7-.32-.77-1.08-.77h-5.36c-.76,0-.9,.07-1.08,.77l-1.48,5.89H5.81c-.43,0-.78,.35-.78,.78v6.6c0,.43,.35,.78,.78,.78H79.09c.43,0,.78-.35,.78-.78v-6.6c0-.43-.35-.78-.78-.78Z"/></g><g><path class="cls-1" d="M29.18,78.61h-5.18c-2.82,0-4.72-.48-4.72-2.41,0-.55,.32-2.06,1.04-2.06,.32,0,.51,.25,.51,.51,0,.12-.04,.25-.14,.35-.25,.25-.41,.85-.41,1.2,0,.58,.16,1.39,3.72,1.39h5.18c.26,0,.51,.23,.51,.51,0,.26-.25,.51-.51,.51Zm-1.66-8.25l-2.73,2.38c-.11,.09-.21,.12-.33,.12-.25,0-.49-.19-.49-.51,0-.14,.05-.28,.18-.37l1.69-1.5h-4.95c-.28,0-.51-.23-.51-.51s.23-.51,.51-.51h6.31c.33,0,.51,.28,.51,.53,0,.14-.07,.28-.18,.37Zm2.78,.19c-.09,0-.18-.04-.26-.09l-1.9-1.41c-.12-.09-.18-.23-.18-.37,0-.26,.21-.44,.46-.44,.09,0,.19,.02,.28,.09l1.89,1.39c.12,.09,.18,.25,.18,.37,0,.28-.21,.46-.46,.46Zm2.26-1.16c-.11,0-.19-.02-.28-.09l-1.8-1.37c-.12-.11-.18-.25-.18-.37,0-.3,.23-.46,.46-.46,.11,0,.19,.02,.28,.09l1.8,1.39c.12,.09,.18,.23,.18,.35,0,.3-.25,.46-.46,.46Z"/><path class="cls-1" d="M47.19,77.64c-.05,0-.11,0-.16-.02l-3.33-1.29-3.05,4c-.11,.14-.26,.21-.42,.21-.26,0-.49-.21-.49-.51,0-.09,.04-.19,.09-.28l2.89-3.79c-1.16-.46-2.36-.88-3.47-1.13-1,1.32-2.7,3.07-3.9,3.07-.88,0-1.45-.56-1.45-1.45,0-1.69,1.46-2.85,3.58-2.85,.42,0,.85,.04,1.3,.12l2.57-3.88h-4.48c-.28,0-.51-.25-.51-.51,0-.28,.23-.51,.51-.51h5.43c.28,0,.51,.23,.51,.49,0,.11-.04,.19-.09,.28l-2.89,4.35c1.16,.28,2.36,.74,3.51,1.18l.56-.74v-1.16c0-.28,.23-.51,.51-.51s.51,.23,.51,.51v1.34c0,.11-.04,.21-.11,.3l-.49,.63,3,1.15c.21,.09,.35,.26,.35,.46,0,.32-.25,.53-.49,.53Zm-9.71-3.03c-1.41,0-2.57,.67-2.57,1.85,0,.32,.12,.42,.44,.42,.48,0,1.64-.93,2.73-2.24-.21-.02-.41-.04-.6-.04Z"/><path class="cls-1" d="M57.04,69.28h-1.59v.83c0,.28-.23,.51-.51,.51-.26,0-.49-.23-.49-.51v-.83h-1.69l-1.94,1.37c-.09,.07-.19,.11-.3,.11-.3,0-.51-.25-.51-.53,0-.16,.07-.32,.21-.42l1.85-1.3v-.93c0-.28,.23-.51,.51-.51s.51,.23,.51,.51v.71h3.95c.26,0,.49,.23,.49,.49,0,.28-.23,.51-.49,.51Zm-.11,4.02h-1.74v.85l1.96,1.66c.12,.11,.18,.26,.18,.41,0,.28-.23,.51-.51,.51-.11,0-.23-.05-.32-.12l-1.3-1.11v4.09c0,.26-.23,.48-.51,.48-.26,0-.51-.21-.51-.48v-4.16l-2.98,2.2c-.09,.07-.19,.09-.3,.09-.28,0-.51-.23-.51-.51,0-.14,.07-.3,.21-.41l3.58-2.64v-.85h-2.61c-.28,0-.51-.25-.51-.51,0-.28,.23-.51,.51-.51h2.61v-.9c0-.28,.25-.51,.51-.51,.28,0,.51,.23,.51,.51v.9h1.74c.26,0,.49,.23,.49,.51,0,.26-.23,.51-.49,.51Zm8.18-4.02h-3.05v.83c0,.28-.23,.51-.51,.51s-.51-.23-.51-.51v-.83h-1.48l-1.16,.99c-.09,.09-.21,.12-.32,.12-.3,0-.53-.23-.53-.51,0-.14,.07-.3,.18-.39l1.13-.95v-.97c0-.28,.23-.51,.51-.51s.51,.23,.51,.51v.71h5.23c.28,0,.51,.23,.51,.49,0,.28-.23,.51-.51,.51Zm-1.25,10.12h-4.86c-.28,0-.51-.23-.51-.51v-6.79c0-.26,.23-.51,.51-.51h4.86c.28,0,.51,.25,.51,.51v6.79c0,.28-.23,.51-.51,.51Zm-.49-6.79h-3.86v1.29h2.84c.26,0,.46,.19,.46,.46,0,.25-.19,.44-.46,.44h-2.84v1.25h2.84c.26,0,.46,.21,.46,.46s-.19,.46-.46,.46h-2.84v1.41h3.86v-5.76Z"/></g></svg>