<?xml version="1.0" encoding="UTF-8"?><svg id="q1-6img" xmlns="http://www.w3.org/2000/svg" viewBox="0 0 436.8 200.37"><defs><style>.cls-1{fill:#fff;}.cls-2{fill:#1e293b;}.cls-3{fill:#f6f6f6;}.cls-4{opacity:.7;}.cls-5{fill:#f09ecb;}.cls-6{fill:#5d8cd4;}.cls-7{fill:#40a5a8;}.cls-8{fill:none;stroke:#fff;stroke-width:1.5px;}</style></defs><g id="q1-6img"><rect class="cls-3" width="436.8" height="200.37"/><g><rect class="cls-5" x="123.35" y="6.19" width="150.1" height="112.57"/><g class="cls-4"><path class="cls-1" d="m180,16.69h-.72v-2.57c0-.96-.35-1.43-1.05-1.43-.36,0-.66.14-.9.41-.24.27-.35.61-.35,1.03v2.57h-.72v-4.5h.72v.75h.02c.34-.57.83-.85,1.48-.85.49,0,.87.16,1.13.48.26.32.39.78.39,1.38v2.75Z"/><path class="cls-1" d="m185,16.69h-.72v-.71h-.02c-.3.55-.76.82-1.39.82-1.07,0-1.61-.64-1.61-1.92v-2.69h.72v2.58c0,.95.36,1.42,1.09,1.42.35,0,.64-.13.87-.39.23-.26.34-.6.34-1.02v-2.59h.72v4.5Z"/><path class="cls-1" d="m192.85,16.69h-.72v-2.59c0-.5-.08-.86-.23-1.08-.15-.22-.41-.33-.78-.33-.31,0-.57.14-.79.42-.21.28-.32.62-.32,1.01v2.57h-.72v-2.67c0-.89-.34-1.33-1.02-1.33-.32,0-.58.13-.78.4-.21.27-.31.61-.31,1.04v2.57h-.72v-4.5h.72v.71h.02c.32-.55.79-.82,1.4-.82.31,0,.58.09.8.26s.39.4.47.67c.33-.62.83-.93,1.5-.93.99,0,1.49.61,1.49,1.83v2.77Z"/><path class="cls-1" d="m196.52,14.47h-2.4v-.57h2.4v.57Z"/><path class="cls-1" d="m202.06,14.24l-3.78,1.9v-.66l2.83-1.37v-.03l-2.83-1.57v-.66l3.78,2.12v.26Z"/><path class="cls-1" d="m207.71,16.69h-.72v-2.57c0-.96-.35-1.43-1.05-1.43-.36,0-.66.14-.9.41-.24.27-.35.61-.35,1.03v2.57h-.72v-4.5h.72v.75h.02c.34-.57.83-.85,1.48-.85.49,0,.87.16,1.13.48.26.32.39.78.39,1.38v2.75Z"/><path class="cls-1" d="m212.71,16.69h-.72v-.71h-.02c-.3.55-.76.82-1.39.82-1.07,0-1.61-.64-1.61-1.92v-2.69h.72v2.58c0,.95.36,1.42,1.09,1.42.35,0,.64-.13.87-.39.23-.26.34-.6.34-1.02v-2.59h.72v4.5Z"/><path class="cls-1" d="m220.56,16.69h-.72v-2.59c0-.5-.08-.86-.23-1.08-.15-.22-.41-.33-.78-.33-.31,0-.57.14-.79.42-.21.28-.32.62-.32,1.01v2.57h-.72v-2.67c0-.89-.34-1.33-1.02-1.33-.32,0-.58.13-.78.4-.21.27-.31.61-.31,1.04v2.57h-.72v-4.5h.72v.71h.02c.32-.55.79-.82,1.4-.82.31,0,.58.09.8.26s.39.4.47.67c.33-.62.83-.93,1.5-.93.99,0,1.49.61,1.49,1.83v2.77Z"/></g><path class="cls-1" d="m191.81,25.42c-.18-.11-.39-.16-.63-.16-.66,0-.99.37-.99,1.12v.81h1.4v1.07h-1.39v4.94h-1.36v-4.94h-1.03v-1.07h1.03v-.97c0-.63.21-1.13.62-1.5.41-.37.93-.55,1.55-.55.34,0,.6.04.8.11v1.13Z"/><path class="cls-1" d="m209.04,27.2l-2.02,3.04,1.98,2.97h-1.12l-1.18-1.95c-.07-.12-.16-.27-.26-.46h-.02s-.11.19-.28.46l-1.2,1.95h-1.11l2.05-2.94-1.96-3.06h1.12l1.16,2.05c.09.15.17.31.25.47h.02l1.5-2.52h1.06Z"/><rect class="cls-8" x="122.6" y="5.44" width="151.6" height="114.07"/><rect class="cls-7" x="160.88" y="43.71" width="75.05" height="37.52"/><g class="cls-4"><path class="cls-1" d="m193.85,54.22h-.72v-2.57c0-.96-.35-1.43-1.05-1.43-.36,0-.66.14-.9.41-.24.27-.35.61-.35,1.03v2.57h-.72v-4.5h.72v.75h.02c.34-.57.83-.85,1.48-.85.49,0,.87.16,1.13.48.26.32.39.78.39,1.38v2.75Z"/><path class="cls-1" d="m198.85,54.22h-.72v-.71h-.02c-.3.55-.76.82-1.39.82-1.07,0-1.61-.64-1.61-1.92v-2.69h.72v2.58c0,.95.36,1.42,1.09,1.42.35,0,.64-.13.87-.39.23-.26.34-.6.34-1.02v-2.59h.72v4.5Z"/><path class="cls-1" d="m206.7,54.22h-.72v-2.59c0-.5-.08-.86-.23-1.08-.15-.22-.41-.33-.78-.33-.31,0-.57.14-.79.42-.21.28-.32.62-.32,1.01v2.57h-.72v-2.67c0-.89-.34-1.33-1.02-1.33-.32,0-.58.13-.78.4-.21.27-.31.61-.31,1.04v2.57h-.72v-4.5h.72v.71h.02c.32-.55.79-.82,1.4-.82.31,0,.58.09.8.26s.39.4.47.67c.33-.62.83-.93,1.5-.93.99,0,1.49.61,1.49,1.83v2.77Z"/></g><path class="cls-1" d="m201.17,67.74h-2.32v2.32h-.97v-2.32h-2.32v-.97h2.32v-2.32h.97v2.32h2.32v.97Z"/><rect class="cls-7" x="123.35" y="81.24" width="75.05" height="37.52"/><g class="cls-4"><path class="cls-1" d="m156.33,91.74h-.72v-2.57c0-.96-.35-1.43-1.05-1.43-.36,0-.66.14-.9.41-.24.27-.35.61-.35,1.03v2.57h-.72v-4.5h.72v.75h.02c.34-.57.83-.85,1.48-.85.49,0,.87.16,1.13.48.26.32.39.78.39,1.38v2.75Z"/><path class="cls-1" d="m161.33,91.74h-.72v-.71h-.02c-.3.55-.76.82-1.39.82-1.07,0-1.61-.64-1.61-1.92v-2.69h.72v2.58c0,.95.36,1.42,1.09,1.42.35,0,.64-.13.87-.39.23-.26.34-.6.34-1.02v-2.59h.72v4.5Z"/><path class="cls-1" d="m169.18,91.74h-.72v-2.59c0-.5-.08-.86-.23-1.08-.15-.22-.41-.33-.78-.33-.31,0-.57.14-.79.42-.21.28-.32.62-.32,1.01v2.57h-.72v-2.67c0-.89-.34-1.33-1.02-1.33-.32,0-.58.13-.78.4-.21.27-.31.61-.31,1.04v2.57h-.72v-4.5h.72v.71h.02c.32-.55.79-.82,1.4-.82.31,0,.58.09.8.26s.39.4.47.67c.33-.62.83-.93,1.5-.93.99,0,1.49.61,1.49,1.83v2.77Z"/></g><path class="cls-1" d="m163.73,102.25l-2,3.04,1.98,2.97h-1.58l-1.06-1.86c-.07-.11-.14-.26-.23-.43h-.02s-.1.18-.25.43l-1.07,1.86h-1.57l2.04-2.94-1.93-3.06h1.58l1.04,1.95c.08.14.15.29.23.45h.02l1.34-2.4h1.49Z"/><rect class="cls-6" x="198.4" y="81.24" width="75.05" height="37.52"/><g class="cls-4"><path class="cls-1" d="m231.37,91.74h-.72v-2.57c0-.96-.35-1.43-1.05-1.43-.36,0-.66.14-.9.41-.24.27-.35.61-.35,1.03v2.57h-.72v-4.5h.72v.75h.02c.34-.57.83-.85,1.48-.85.49,0,.87.16,1.13.48.26.32.39.78.39,1.38v2.75Z"/><path class="cls-1" d="m236.37,91.74h-.72v-.71h-.02c-.3.55-.76.82-1.39.82-1.07,0-1.61-.64-1.61-1.92v-2.69h.72v2.58c0,.95.36,1.42,1.09,1.42.35,0,.64-.13.87-.39.23-.26.34-.6.34-1.02v-2.59h.72v4.5Z"/><path class="cls-1" d="m244.22,91.74h-.72v-2.59c0-.5-.08-.86-.23-1.08-.15-.22-.41-.33-.78-.33-.31,0-.57.14-.79.42-.21.28-.32.62-.32,1.01v2.57h-.72v-2.67c0-.89-.34-1.33-1.02-1.33-.32,0-.58.13-.78.4-.21.27-.31.61-.31,1.04v2.57h-.72v-4.5h.72v.71h.02c.32-.55.79-.82,1.4-.82.31,0,.58.09.8.26s.39.4.47.67c.33-.62.83-.93,1.5-.93.99,0,1.49.61,1.49,1.83v2.77Z"/></g><path class="cls-1" d="m233.27,107.94v-1.28c.55.43,1.17.65,1.85.65.56,0,1-.13,1.34-.38.33-.25.5-.6.5-1.03,0-.95-.73-1.43-2.19-1.43h-.65v-1.09h.62c1.29,0,1.94-.45,1.94-1.35,0-.83-.5-1.24-1.51-1.24-.56,0-1.09.2-1.59.6v-1.21c.57-.32,1.24-.48,2.02-.48s1.34.19,1.79.56c.45.38.67.86.67,1.44,0,1.11-.56,1.82-1.69,2.13v.02c.61.06,1.08.27,1.44.64.35.37.53.82.53,1.37,0,.75-.28,1.36-.85,1.83-.57.46-1.31.69-2.24.69-.83,0-1.5-.15-1.99-.45Z"/><rect class="cls-7" x="160.88" y="120.26" width="75.05" height="37.52"/><g class="cls-4"><path class="cls-1" d="m193.85,130.77h-.72v-2.57c0-.96-.35-1.43-1.05-1.43-.36,0-.66.14-.9.41-.24.27-.35.61-.35,1.03v2.57h-.72v-4.5h.72v.75h.02c.34-.57.83-.85,1.48-.85.49,0,.87.16,1.13.48.26.32.39.78.39,1.38v2.75Z"/><path class="cls-1" d="m198.85,130.77h-.72v-.71h-.02c-.3.55-.76.82-1.39.82-1.07,0-1.61-.64-1.61-1.92v-2.69h.72v2.58c0,.95.36,1.42,1.09,1.42.35,0,.64-.13.87-.39.23-.26.34-.6.34-1.02v-2.59h.72v4.5Z"/><path class="cls-1" d="m206.7,130.77h-.72v-2.59c0-.5-.08-.86-.23-1.08-.15-.22-.41-.33-.78-.33-.31,0-.57.14-.79.42-.21.28-.32.62-.32,1.01v2.57h-.72v-2.67c0-.89-.34-1.33-1.02-1.33-.32,0-.58.13-.78.4-.21.27-.31.61-.31,1.04v2.57h-.72v-4.5h.72v.71h.02c.32-.55.79-.82,1.4-.82.31,0,.58.09.8.26s.39.4.47.67c.33-.62.83-.93,1.5-.93.99,0,1.49.61,1.49,1.83v2.77Z"/></g><path class="cls-1" d="m200.57,139.5c-.18-.11-.39-.16-.63-.16-.66,0-.99.37-.99,1.12v.81h1.4v1.07h-1.39v4.94h-1.36v-4.94h-1.03v-1.07h1.03v-.97c0-.63.21-1.13.62-1.5.41-.37.93-.55,1.55-.55.34,0,.6.04.8.11v1.13Z"/><rect class="cls-6" x="160.88" y="157.78" width="75.05" height="37.52"/><g class="cls-4"><path class="cls-1" d="m193.85,168.29h-.72v-2.57c0-.96-.35-1.43-1.05-1.43-.36,0-.66.14-.9.41-.24.27-.35.61-.35,1.03v2.57h-.72v-4.5h.72v.75h.02c.34-.57.83-.85,1.48-.85.49,0,.87.16,1.13.48.26.32.39.78.39,1.38v2.75Z"/><path class="cls-1" d="m198.85,168.29h-.72v-.71h-.02c-.3.54-.76.82-1.39.82-1.07,0-1.61-.64-1.61-1.92v-2.69h.72v2.58c0,.95.36,1.42,1.09,1.42.35,0,.64-.13.87-.39.23-.26.34-.6.34-1.02v-2.59h.72v4.5Z"/><path class="cls-1" d="m206.7,168.29h-.72v-2.59c0-.5-.08-.86-.23-1.08-.15-.22-.41-.33-.78-.33-.31,0-.57.14-.79.42-.21.28-.32.62-.32,1.01v2.57h-.72v-2.67c0-.88-.34-1.33-1.02-1.33-.32,0-.58.13-.78.4s-.31.61-.31,1.04v2.57h-.72v-4.5h.72v.71h.02c.32-.55.79-.82,1.4-.82.31,0,.58.09.8.26.23.17.39.4.47.68.33-.62.83-.93,1.5-.93.99,0,1.49.61,1.49,1.83v2.77Z"/></g><path class="cls-1" d="m195.74,184.49v-1.28c.55.43,1.17.65,1.85.65.56,0,1-.13,1.34-.38.33-.25.5-.6.5-1.03,0-.95-.73-1.43-2.19-1.43h-.65v-1.09h.62c1.29,0,1.94-.45,1.94-1.35,0-.83-.5-1.24-1.51-1.24-.56,0-1.09.2-1.59.6v-1.21c.57-.32,1.24-.48,2.02-.48s1.34.19,1.79.56.67.86.67,1.44c0,1.11-.56,1.82-1.69,2.13v.02c.61.06,1.08.27,1.44.64.35.37.53.82.53,1.37,0,.75-.28,1.36-.85,1.83-.57.46-1.31.69-2.24.69-.83,0-1.5-.15-1.99-.45Z"/></g><g><rect class="cls-7" x="300.72" y="6.19" width="75.05" height="37.52"/><g class="cls-4"><path class="cls-1" d="m333.72,16.69h-.72v-2.57c0-.96-.35-1.43-1.05-1.43-.36,0-.66.14-.9.41-.24.27-.35.61-.35,1.03v2.57h-.72v-4.5h.72v.75h.02c.34-.57.83-.85,1.48-.85.49,0,.87.16,1.13.48.26.32.39.78.39,1.38v2.75Z"/><path class="cls-1" d="m338.72,16.69h-.72v-.71h-.02c-.3.55-.76.82-1.39.82-1.07,0-1.61-.64-1.61-1.92v-2.69h.72v2.58c0,.95.36,1.42,1.09,1.42.35,0,.64-.13.87-.39.23-.26.34-.6.34-1.02v-2.59h.72v4.5Z"/><path class="cls-1" d="m346.57,16.69h-.72v-2.59c0-.5-.08-.86-.23-1.08-.15-.22-.41-.33-.78-.33-.31,0-.57.14-.79.42-.21.28-.32.62-.32,1.01v2.57h-.72v-2.67c0-.89-.34-1.33-1.02-1.33-.32,0-.58.13-.78.4-.21.27-.31.61-.31,1.04v2.57h-.72v-4.5h.72v.71h.02c.32-.55.79-.82,1.4-.82.31,0,.58.09.8.26s.39.4.47.67c.33-.62.83-.93,1.5-.93.99,0,1.49.61,1.49,1.83v2.77Z"/></g><path class="cls-1" d="m340.44,25.42c-.18-.11-.39-.16-.63-.16-.66,0-.99.37-.99,1.12v.81h1.4v1.07h-1.39v4.94h-1.36v-4.94h-1.03v-1.07h1.03v-.97c0-.63.21-1.13.62-1.5.41-.37.93-.55,1.55-.55.34,0,.6.04.8.11v1.13Z"/><rect class="cls-6" x="300.72" y="43.71" width="75.05" height="37.52"/><g class="cls-4"><path class="cls-1" d="m333.72,54.22h-.72v-2.57c0-.96-.35-1.43-1.05-1.43-.36,0-.66.14-.9.41-.24.27-.35.61-.35,1.03v2.57h-.72v-4.5h.72v.75h.02c.34-.57.83-.85,1.48-.85.49,0,.87.16,1.13.48.26.32.39.78.39,1.38v2.75Z"/><path class="cls-1" d="m338.72,54.22h-.72v-.71h-.02c-.3.55-.76.82-1.39.82-1.07,0-1.61-.64-1.61-1.92v-2.69h.72v2.58c0,.95.36,1.42,1.09,1.42.35,0,.64-.13.87-.39.23-.26.34-.6.34-1.02v-2.59h.72v4.5Z"/><path class="cls-1" d="m346.57,54.22h-.72v-2.59c0-.5-.08-.86-.23-1.08-.15-.22-.41-.33-.78-.33-.31,0-.57.14-.79.42-.21.28-.32.62-.32,1.01v2.57h-.72v-2.67c0-.89-.34-1.33-1.02-1.33-.32,0-.58.13-.78.4-.21.27-.31.61-.31,1.04v2.57h-.72v-4.5h.72v.71h.02c.32-.55.79-.82,1.4-.82.31,0,.58.09.8.26s.39.4.47.67c.33-.62.83-.93,1.5-.93.99,0,1.49.61,1.49,1.83v2.77Z"/></g><path class="cls-1" d="m335.61,70.42v-1.28c.55.43,1.17.65,1.85.65.56,0,1-.13,1.34-.38.33-.25.5-.6.5-1.03,0-.95-.73-1.43-2.19-1.43h-.65v-1.09h.62c1.29,0,1.94-.45,1.94-1.35,0-.83-.5-1.24-1.51-1.24-.56,0-1.09.2-1.59.6v-1.21c.57-.32,1.24-.48,2.02-.48s1.34.19,1.79.56c.45.38.67.86.67,1.44,0,1.11-.56,1.82-1.69,2.13v.02c.61.06,1.08.27,1.44.64.35.37.53.82.53,1.37,0,.75-.28,1.36-.85,1.83-.57.46-1.31.69-2.24.69-.83,0-1.5-.15-1.99-.45Z"/></g><g><path class="cls-2" d="m21.85,33.14c.57.07,1.13.1,1.69.1.17,0,.35,0,.51-.01.58-.03.87-.39.87-1.09v-5.21h-6.56c-.23,2.87-.87,5.28-1.94,7.23-.08.18-.15.28-.22.28-.05,0-.15-.06-.29-.17-.23-.18-.46-.32-.7-.41.89-1.42,1.5-3.06,1.82-4.93.25-1.48.38-3.37.38-5.67v-2.48l-.05-3.2c-.39.52-.76.95-1.1,1.31-.13.15-.22.22-.28.22-.06,0-.17-.08-.31-.25-.16-.16-.35-.29-.56-.39,1.69-1.66,3.03-3.66,4.03-5.99.27-.7.43-1.28.48-1.74.4.1.79.24,1.15.41.18.09.28.17.28.26,0,.11-.07.22-.22.33-.15.12-.35.46-.59,1.02l-.13.26h3.02c.2,0,.35-.03.46-.08.11-.05.18-.08.21-.08.12,0,.3.1.54.31.31.26.46.45.46.58s-.07.24-.21.34c-.17.1-.32.3-.46.59-.51,1.03-1.03,1.96-1.56,2.79h.56l2.74-.05c.12,0,.18.06.18.18l-.05,3.17v8.05l.03,3.55c0,.78-.21,1.32-.62,1.64-.39.29-1.25.43-2.58.43-.23,0-.36-.02-.41-.07-.04-.03-.1-.16-.16-.37-.08-.32-.21-.62-.41-.89Zm-2.2-19.15c-.61,1.21-1.34,2.35-2.18,3.44h.08l2.71.05h1.1c.77-1.18,1.38-2.34,1.84-3.49h-3.55Zm-1.18,9.35c0,.68-.02,1.56-.05,2.62h2.77v-3.34h-2.71v.72Zm0-4.89v3.17h2.71v-3.17h-2.71Zm6.45,0h-2.71v3.17h2.71v-3.17Zm-2.71,4.17v3.34h2.71v-3.34h-2.71Zm14.64-8.98h-4.35c-.14,1.62-.6,2.93-1.38,3.95-.66.87-1.67,1.69-3.06,2.48-.16.09-.26.13-.3.13-.07,0-.18-.09-.34-.26-.18-.2-.41-.38-.7-.54,1.62-.76,2.77-1.61,3.46-2.56.61-.83.99-1.9,1.13-3.2h-.72l-3.15.05c-.12,0-.18-.06-.18-.18v-.79c0-.12.06-.18.18-.18l3.15.05h4.13l3.17-.05c.14,0,.21.07.21.22-.03.15-.04.35-.05.62-.02.31-.03.49-.03.54-.12,2.02-.33,3.48-.62,4.38-.29.77-.94,1.15-1.94,1.15-.72,0-1.3-.02-1.74-.05-.21-.02-.33-.05-.37-.09-.03-.03-.07-.15-.09-.34-.04-.3-.14-.59-.29-.89.74.15,1.45.22,2.12.22.72,0,1.15-.23,1.29-.7.24-.94.4-2.26.46-3.96Zm-6.3,15.24l-3.41.05c-.12,0-.18-.07-.18-.21v-.79c0-.12.06-.18.18-.18l3.41.05h2.07v-3.31h-3.41c-.29.58-.67,1.21-1.15,1.9-.13.19-.23.29-.3.29-.04,0-.09-.02-.16-.07-.25-.16-.53-.28-.83-.35.88-1.05,1.6-2.29,2.14-3.71.19-.52.32-1.02.38-1.52.35.09.7.2,1.05.34.17.08.26.17.26.28s-.05.19-.16.26c-.1.08-.21.29-.34.64l-.38.92h2.9v-1.31c0-.73-.05-1.38-.16-1.94.37.02.8.06,1.31.13.17.04.26.1.26.2,0,.04-.04.18-.13.41-.09.2-.13.6-.13,1.21v1.31h1.23l3.1-.05c.12,0,.18.06.18.18v.76c0,.12-.06.18-.18.18l-3.1-.05h-1.23v3.31h1.99l3.41-.05c.1,0,.16.06.16.18v.79c0,.14-.05.21-.16.21l-3.41-.05h-1.99v2.15l.05,3.44c0,.12-.06.18-.18.18h-.89c-.12,0-.18-.06-.18-.18l.05-3.44v-2.15h-2.07Z"/><path class="cls-2" d="m54.79,18.24c1.39,1.43,3.21,2.69,5.47,3.79,2.02.99,4.17,1.73,6.47,2.22-.24.17-.48.44-.71.81-.12.22-.23.33-.31.33-.04,0-.14-.02-.3-.07-2.47-.72-4.76-1.69-6.87-2.91-1.89-1.09-3.4-2.26-4.54-3.5-2.87,2.86-6.5,5.04-10.89,6.54-.17.07-.28.1-.33.1-.07,0-.17-.1-.31-.31-.19-.32-.42-.56-.67-.7,4.63-1.42,8.28-3.45,10.96-6.1.45-.45.73-.84.85-1.15.59.11,1,.21,1.23.29.22.09.33.19.33.3,0,.12-.07.21-.21.26l-.17.09Zm-5.34-3.55c.54.87,1.04,1.93,1.5,3.2.02.04.03.07.03.09,0,.08-.09.14-.26.2l-.56.2c-.14.04-.23.07-.26.07-.06,0-.11-.05-.14-.16-.49-1.5-1.01-2.69-1.56-3.59h-2.14c-.8,1.21-1.64,2.23-2.53,3.06-.15.15-.24.22-.29.22s-.15-.07-.33-.22c-.19-.17-.42-.29-.7-.37,1.63-1.42,2.97-3.24,4.03-5.48.16-.32.28-.73.35-1.21.51.13.92.27,1.23.41.16.06.24.15.24.26,0,.09-.08.2-.24.33-.1.08-.24.28-.41.62-.35.67-.59,1.1-.72,1.31h4.21l2.66-.05c.12,0,.18.06.18.18v.81c0,.12-.06.18-.18.18l-2.66-.05h-1.44Zm-1.32,18.68v1.18c0,.12-.06.18-.18.18h-.92c-.12,0-.18-.06-.18-.18l.05-3.79v-1.48l-.05-2.18c0-.12.06-.18.18-.18l3.69.05h7.06l3.69-.05c.12,0,.18.06.18.18l-.05,1.92v1.67l.05,3.76c0,.12-.06.18-.18.18h-.92c-.12,0-.18-.06-.18-.18v-1.08h-12.22Zm0-1.08h12.22v-4.25h-12.22v4.25Zm7.9-7.74h-3.7l-3.02.05c-.12,0-.18-.06-.18-.18v-.81c0-.12.06-.18.18-.18l3.02.05h3.7l3.04-.05c.12,0,.18.06.18.18v.81c0,.12-.06.18-.18.18l-3.04-.05Zm3.84-9.86c.6,1.05,1.09,2.12,1.46,3.2.02.04.03.06.03.08,0,.07-.1.14-.3.21l-.47.16c-.18.07-.29.1-.34.1s-.09-.05-.12-.14c-.42-1.36-.94-2.57-1.56-3.61h-2.5c-.39.71-.87,1.39-1.42,2.03-.14.18-.24.26-.29.26-.06,0-.18-.07-.35-.22-.18-.16-.41-.27-.67-.33,1.17-1.22,2.07-2.74,2.7-4.54.13-.42.21-.78.22-1.08.52.1.93.22,1.21.35.16.06.24.14.24.24,0,.09-.07.21-.21.35-.07.06-.19.28-.35.67-.06.17-.15.38-.26.64-.14.31-.22.49-.25.54h5.84l3.15-.05c.12,0,.18.06.18.18v.81c0,.12-.06.18-.18.18l-3.15-.05h-2.58Z"/><path class="cls-2" d="m73.03,16.97v13.43l.05,4.25c0,.12-.07.18-.2.18h-.9c-.12,0-.18-.06-.18-.18l.05-4.25v-7.03c0-.97.02-2.37.05-4.2-.77,1.37-1.65,2.71-2.64,4.01-.11.16-.2.24-.26.24-.07,0-.16-.08-.28-.24-.14-.2-.34-.38-.59-.55,2.53-3.13,4.29-6.46,5.29-9.98.22-.8.34-1.4.35-1.81.37.09.8.23,1.31.43.17.05.25.14.25.28,0,.12-.08.25-.25.37-.1.09-.27.43-.49,1.02-.49,1.51-1.01,2.85-1.57,4.03Zm6.16,1.08h2.99c.3,0,.52-.04.67-.13.1-.05.21-.08.3-.08.13,0,.36.15.7.46.25.24.38.44.38.59,0,.13-.06.24-.17.33-.12.1-.22.39-.29.88-.72,3.46-1.77,6.26-3.16,8.41-1.12,1.71-2.77,3.47-4.96,5.29-.16.12-.26.18-.3.18-.05,0-.16-.1-.31-.29-.18-.23-.42-.42-.72-.56,2.9-2.06,5.01-4.42,6.33-7.07-.73-.89-1.63-1.73-2.69-2.52-.07-.06-.1-.11-.1-.16,0-.04.05-.12.16-.25l.3-.38c.08-.1.15-.14.21-.14.04,0,.08.02.13.07.94.69,1.79,1.43,2.53,2.23.73-1.76,1.22-3.68,1.48-5.77h-3.84c-.77,2-1.9,3.91-3.38,5.72-.12.15-.22.22-.29.22s-.16-.07-.28-.2c-.23-.23-.46-.39-.71-.49,2.65-2.81,4.24-6.26,4.76-10.36h-.33l-2.85.05c-.12,0-.18-.06-.18-.18v-.81c0-.12.06-.18.18-.18l2.85.05h3.25l2.85-.05c.13,0,.2.06.2.18v.81c0,.12-.07.18-.2.18l-2.85-.05h-1.74c-.23,1.43-.53,2.78-.92,4.03Zm6.82-4.56c.5.03.94.08,1.34.16.17.03.25.09.25.2,0,.02-.04.16-.13.42-.07.2-.1,1.11-.1,2.74v6.96l.05,3.38c0,.12-.07.18-.2.18h-.88c-.12,0-.18-.06-.18-.18l.05-3.38v-6.91c0-1.82-.07-3.01-.2-3.57Zm1.1,19.58c.76.07,1.46.1,2.1.1.56,0,.94-.1,1.14-.29.21-.19.31-.55.31-1.08V14.37c0-1.48-.07-2.51-.2-3.1.35.02.82.06,1.4.13.2.04.3.11.3.22,0,.09-.06.26-.17.51-.09.22-.13.95-.13,2.2v14.02l.03,3.62c0,.96-.24,1.61-.71,1.95-.39.31-1.13.47-2.22.47-.27,0-.55,0-.84-.01-.23,0-.36-.02-.41-.07-.04-.04-.1-.16-.16-.37-.07-.31-.22-.62-.46-.9Z"/></g></g></svg>