<?xml version="1.0" encoding="UTF-8"?><svg id="q1-6img" xmlns="http://www.w3.org/2000/svg" viewBox="0 0 445.11 213.95"><defs><style>.cls-1{fill:#fff;}.cls-2{fill:#1e293b;}.cls-3{fill:#f6f6f6;}.cls-4{opacity:.7;}.cls-5{fill:#f09ecb;}.cls-6{fill:#5d8cd4;}.cls-7{fill:#40a5a8;}.cls-8{fill:none;stroke:#fff;stroke-width:1.5px;}</style></defs><g id="q1-6img"><rect class="cls-3" width="445.11" height="213.95"/><rect class="cls-5" x="123.35" y="19.76" width="150.1" height="112.57"/><g class="cls-4"><path class="cls-1" d="m180,30.27h-.72v-2.57c0-.96-.35-1.43-1.05-1.43-.36,0-.66.14-.9.41-.24.27-.35.61-.35,1.03v2.57h-.72v-4.5h.72v.75h.02c.34-.57.83-.85,1.48-.85.49,0,.87.16,1.13.48.26.32.39.78.39,1.38v2.75Z"/><path class="cls-1" d="m185,30.27h-.72v-.71h-.02c-.3.55-.76.82-1.39.82-1.07,0-1.61-.64-1.61-1.92v-2.69h.72v2.58c0,.95.36,1.42,1.09,1.42.35,0,.64-.13.87-.39.23-.26.34-.6.34-1.02v-2.59h.72v4.5Z"/><path class="cls-1" d="m192.85,30.27h-.72v-2.59c0-.5-.08-.86-.23-1.08-.15-.22-.41-.33-.78-.33-.31,0-.57.14-.79.42-.21.28-.32.62-.32,1.01v2.57h-.72v-2.67c0-.89-.34-1.33-1.02-1.33-.32,0-.58.13-.78.4-.21.27-.31.61-.31,1.04v2.57h-.72v-4.5h.72v.71h.02c.32-.55.79-.82,1.4-.82.31,0,.58.09.8.26s.39.4.47.67c.33-.62.83-.93,1.5-.93.99,0,1.49.61,1.49,1.83v2.77Z"/><path class="cls-1" d="m196.52,28.05h-2.4v-.57h2.4v.57Z"/><path class="cls-1" d="m202.06,27.81l-3.78,1.9v-.66l2.83-1.37v-.03l-2.83-1.57v-.66l3.78,2.12v.26Z"/><path class="cls-1" d="m207.71,30.27h-.72v-2.57c0-.96-.35-1.43-1.05-1.43-.36,0-.66.14-.9.41-.24.27-.35.61-.35,1.03v2.57h-.72v-4.5h.72v.75h.02c.34-.57.83-.85,1.48-.85.49,0,.87.16,1.13.48.26.32.39.78.39,1.38v2.75Z"/><path class="cls-1" d="m212.71,30.27h-.72v-.71h-.02c-.3.55-.76.82-1.39.82-1.07,0-1.61-.64-1.61-1.92v-2.69h.72v2.58c0,.95.36,1.42,1.09,1.42.35,0,.64-.13.87-.39.23-.26.34-.6.34-1.02v-2.59h.72v4.5Z"/><path class="cls-1" d="m220.56,30.27h-.72v-2.59c0-.5-.08-.86-.23-1.08-.15-.22-.41-.33-.78-.33-.31,0-.57.14-.79.42-.21.28-.32.62-.32,1.01v2.57h-.72v-2.67c0-.89-.34-1.33-1.02-1.33-.32,0-.58.13-.78.4-.21.27-.31.61-.31,1.04v2.57h-.72v-4.5h.72v.71h.02c.32-.55.79-.82,1.4-.82.31,0,.58.09.8.26s.39.4.47.67c.33-.62.83-.93,1.5-.93.99,0,1.49.61,1.49,1.83v2.77Z"/></g><path class="cls-1" d="m191.81,39c-.18-.11-.39-.16-.63-.16-.66,0-.99.37-.99,1.12v.81h1.4v1.07h-1.39v4.94h-1.36v-4.94h-1.03v-1.07h1.03v-.97c0-.63.21-1.13.62-1.5.41-.37.93-.55,1.55-.55.34,0,.6.04.8.11v1.13Z"/><path class="cls-1" d="m209.04,40.78l-2.02,3.04,1.98,2.97h-1.12l-1.18-1.95c-.07-.12-.16-.27-.26-.46h-.02s-.11.19-.28.46l-1.2,1.95h-1.11l2.05-2.94-1.96-3.06h1.12l1.16,2.05c.09.15.17.31.25.47h.02l1.5-2.52h1.06Z"/><rect class="cls-8" x="122.6" y="19.01" width="151.6" height="114.07"/><rect class="cls-7" x="160.88" y="57.29" width="75.05" height="37.52"/><g class="cls-4"><path class="cls-1" d="m193.85,67.79h-.72v-2.57c0-.96-.35-1.43-1.05-1.43-.36,0-.66.14-.9.41-.24.27-.35.61-.35,1.03v2.57h-.72v-4.5h.72v.75h.02c.34-.57.83-.85,1.48-.85.49,0,.87.16,1.13.48.26.32.39.78.39,1.38v2.75Z"/><path class="cls-1" d="m198.85,67.79h-.72v-.71h-.02c-.3.55-.76.82-1.39.82-1.07,0-1.61-.64-1.61-1.92v-2.69h.72v2.58c0,.95.36,1.42,1.09,1.42.35,0,.64-.13.87-.39.23-.26.34-.6.34-1.02v-2.59h.72v4.5Z"/><path class="cls-1" d="m206.7,67.79h-.72v-2.59c0-.5-.08-.86-.23-1.08-.15-.22-.41-.33-.78-.33-.31,0-.57.14-.79.42-.21.28-.32.62-.32,1.01v2.57h-.72v-2.67c0-.89-.34-1.33-1.02-1.33-.32,0-.58.13-.78.4-.21.27-.31.61-.31,1.04v2.57h-.72v-4.5h.72v.71h.02c.32-.55.79-.82,1.4-.82.31,0,.58.09.8.26s.39.4.47.67c.33-.62.83-.93,1.5-.93.99,0,1.49.61,1.49,1.83v2.77Z"/></g><path class="cls-1" d="m201.17,81.31h-2.32v2.32h-.97v-2.32h-2.32v-.97h2.32v-2.32h.97v2.32h2.32v.97Z"/><rect class="cls-7" x="123.35" y="94.81" width="75.05" height="37.52"/><g class="cls-4"><path class="cls-1" d="m156.33,105.32h-.72v-2.57c0-.96-.35-1.43-1.05-1.43-.36,0-.66.14-.9.41-.24.27-.35.61-.35,1.03v2.57h-.72v-4.5h.72v.75h.02c.34-.57.83-.85,1.48-.85.49,0,.87.16,1.13.48.26.32.39.78.39,1.38v2.75Z"/><path class="cls-1" d="m161.33,105.32h-.72v-.71h-.02c-.3.55-.76.82-1.39.82-1.07,0-1.61-.64-1.61-1.92v-2.69h.72v2.58c0,.95.36,1.42,1.09,1.42.35,0,.64-.13.87-.39.23-.26.34-.6.34-1.02v-2.59h.72v4.5Z"/><path class="cls-1" d="m169.18,105.32h-.72v-2.59c0-.5-.08-.86-.23-1.08-.15-.22-.41-.33-.78-.33-.31,0-.57.14-.79.42-.21.28-.32.62-.32,1.01v2.57h-.72v-2.67c0-.89-.34-1.33-1.02-1.33-.32,0-.58.13-.78.4-.21.27-.31.61-.31,1.04v2.57h-.72v-4.5h.72v.71h.02c.32-.55.79-.82,1.4-.82.31,0,.58.09.8.26s.39.4.47.67c.33-.62.83-.93,1.5-.93.99,0,1.49.61,1.49,1.83v2.77Z"/></g><path class="cls-1" d="m163.73,115.82l-2,3.04,1.98,2.97h-1.58l-1.06-1.86c-.07-.11-.14-.26-.23-.43h-.02s-.1.18-.25.43l-1.07,1.86h-1.57l2.04-2.94-1.93-3.06h1.58l1.04,1.95c.08.14.15.29.23.45h.02l1.34-2.4h1.49Z"/><rect class="cls-6" x="198.4" y="94.81" width="75.05" height="37.52"/><g class="cls-4"><path class="cls-1" d="m231.37,105.32h-.72v-2.57c0-.96-.35-1.43-1.05-1.43-.36,0-.66.14-.9.41-.24.27-.35.61-.35,1.03v2.57h-.72v-4.5h.72v.75h.02c.34-.57.83-.85,1.48-.85.49,0,.87.16,1.13.48.26.32.39.78.39,1.38v2.75Z"/><path class="cls-1" d="m236.37,105.32h-.72v-.71h-.02c-.3.55-.76.82-1.39.82-1.07,0-1.61-.64-1.61-1.92v-2.69h.72v2.58c0,.95.36,1.42,1.09,1.42.35,0,.64-.13.87-.39.23-.26.34-.6.34-1.02v-2.59h.72v4.5Z"/><path class="cls-1" d="m244.22,105.32h-.72v-2.59c0-.5-.08-.86-.23-1.08-.15-.22-.41-.33-.78-.33-.31,0-.57.14-.79.42-.21.28-.32.62-.32,1.01v2.57h-.72v-2.67c0-.89-.34-1.33-1.02-1.33-.32,0-.58.13-.78.4-.21.27-.31.61-.31,1.04v2.57h-.72v-4.5h.72v.71h.02c.32-.55.79-.82,1.4-.82.31,0,.58.09.8.26s.39.4.47.67c.33-.62.83-.93,1.5-.93.99,0,1.49.61,1.49,1.83v2.77Z"/></g><path class="cls-1" d="m233.27,121.52v-1.28c.55.43,1.17.65,1.85.65.56,0,1-.13,1.34-.38.33-.25.5-.6.5-1.03,0-.95-.73-1.43-2.19-1.43h-.65v-1.09h.62c1.29,0,1.94-.45,1.94-1.35,0-.83-.5-1.24-1.51-1.24-.56,0-1.09.2-1.59.6v-1.21c.57-.32,1.24-.48,2.02-.48s1.34.19,1.79.56c.45.38.67.86.67,1.44,0,1.11-.56,1.82-1.69,2.13v.02c.61.06,1.08.27,1.44.64.35.37.53.82.53,1.37,0,.75-.28,1.36-.85,1.83-.57.46-1.31.69-2.24.69-.83,0-1.5-.15-1.99-.45Z"/><rect class="cls-7" x="160.88" y="133.84" width="75.05" height="37.52"/><g class="cls-4"><path class="cls-1" d="m193.85,144.34h-.72v-2.57c0-.96-.35-1.43-1.05-1.43-.36,0-.66.14-.9.41-.24.27-.35.61-.35,1.03v2.57h-.72v-4.5h.72v.75h.02c.34-.57.83-.85,1.48-.85.49,0,.87.16,1.13.48.26.32.39.78.39,1.38v2.75Z"/><path class="cls-1" d="m198.85,144.34h-.72v-.71h-.02c-.3.55-.76.82-1.39.82-1.07,0-1.61-.64-1.61-1.92v-2.69h.72v2.58c0,.95.36,1.42,1.09,1.42.35,0,.64-.13.87-.39.23-.26.34-.6.34-1.02v-2.59h.72v4.5Z"/><path class="cls-1" d="m206.7,144.34h-.72v-2.59c0-.5-.08-.86-.23-1.08-.15-.22-.41-.33-.78-.33-.31,0-.57.14-.79.42-.21.28-.32.62-.32,1.01v2.57h-.72v-2.67c0-.89-.34-1.33-1.02-1.33-.32,0-.58.13-.78.4-.21.27-.31.61-.31,1.04v2.57h-.72v-4.5h.72v.71h.02c.32-.55.79-.82,1.4-.82.31,0,.58.09.8.26s.39.4.47.67c.33-.62.83-.93,1.5-.93.99,0,1.49.61,1.49,1.83v2.77Z"/></g><path class="cls-1" d="m200.57,153.07c-.18-.11-.39-.16-.63-.16-.66,0-.99.37-.99,1.12v.81h1.4v1.07h-1.39v4.94h-1.36v-4.94h-1.03v-1.07h1.03v-.97c0-.63.21-1.13.62-1.5.41-.37.93-.55,1.55-.55.34,0,.6.04.8.11v1.13Z"/><rect class="cls-6" x="160.88" y="171.36" width="75.05" height="37.52"/><g class="cls-4"><path class="cls-1" d="m193.85,181.87h-.72v-2.57c0-.96-.35-1.43-1.05-1.43-.36,0-.66.14-.9.41-.24.27-.35.61-.35,1.03v2.57h-.72v-4.5h.72v.75h.02c.34-.57.83-.85,1.48-.85.49,0,.87.16,1.13.48.26.32.39.78.39,1.38v2.75Z"/><path class="cls-1" d="m198.85,181.87h-.72v-.71h-.02c-.3.54-.76.82-1.39.82-1.07,0-1.61-.64-1.61-1.92v-2.69h.72v2.58c0,.95.36,1.42,1.09,1.42.35,0,.64-.13.87-.39.23-.26.34-.6.34-1.02v-2.59h.72v4.5Z"/><path class="cls-1" d="m206.7,181.87h-.72v-2.59c0-.5-.08-.86-.23-1.08-.15-.22-.41-.33-.78-.33-.31,0-.57.14-.79.42-.21.28-.32.62-.32,1.01v2.57h-.72v-2.67c0-.88-.34-1.33-1.02-1.33-.32,0-.58.13-.78.4s-.31.61-.31,1.04v2.57h-.72v-4.5h.72v.71h.02c.32-.55.79-.82,1.4-.82.31,0,.58.09.8.26.23.17.39.4.47.68.33-.62.83-.93,1.5-.93.99,0,1.49.61,1.49,1.83v2.77Z"/></g><path class="cls-1" d="m195.74,198.07v-1.28c.55.43,1.17.65,1.85.65.56,0,1-.13,1.34-.38.33-.25.5-.6.5-1.03,0-.95-.73-1.43-2.19-1.43h-.65v-1.09h.62c1.29,0,1.94-.45,1.94-1.35,0-.83-.5-1.24-1.51-1.24-.56,0-1.09.2-1.59.6v-1.21c.57-.32,1.24-.48,2.02-.48s1.34.19,1.79.56.67.86.67,1.44c0,1.11-.56,1.82-1.69,2.13v.02c.61.06,1.08.27,1.44.64.35.37.53.82.53,1.37,0,.75-.28,1.36-.85,1.83-.57.46-1.31.69-2.24.69-.83,0-1.5-.15-1.99-.45Z"/><rect class="cls-7" x="300.72" y="19.76" width="75.05" height="37.52"/><g class="cls-4"><path class="cls-1" d="m333.72,30.27h-.72v-2.57c0-.96-.35-1.43-1.05-1.43-.36,0-.66.14-.9.41-.24.27-.35.61-.35,1.03v2.57h-.72v-4.5h.72v.75h.02c.34-.57.83-.85,1.48-.85.49,0,.87.16,1.13.48.26.32.39.78.39,1.38v2.75Z"/><path class="cls-1" d="m338.72,30.27h-.72v-.71h-.02c-.3.55-.76.82-1.39.82-1.07,0-1.61-.64-1.61-1.92v-2.69h.72v2.58c0,.95.36,1.42,1.09,1.42.35,0,.64-.13.87-.39.23-.26.34-.6.34-1.02v-2.59h.72v4.5Z"/><path class="cls-1" d="m346.57,30.27h-.72v-2.59c0-.5-.08-.86-.23-1.08-.15-.22-.41-.33-.78-.33-.31,0-.57.14-.79.42-.21.28-.32.62-.32,1.01v2.57h-.72v-2.67c0-.89-.34-1.33-1.02-1.33-.32,0-.58.13-.78.4-.21.27-.31.61-.31,1.04v2.57h-.72v-4.5h.72v.71h.02c.32-.55.79-.82,1.4-.82.31,0,.58.09.8.26s.39.4.47.67c.33-.62.83-.93,1.5-.93.99,0,1.49.61,1.49,1.83v2.77Z"/></g><path class="cls-1" d="m340.44,39c-.18-.11-.39-.16-.63-.16-.66,0-.99.37-.99,1.12v.81h1.4v1.07h-1.39v4.94h-1.36v-4.94h-1.03v-1.07h1.03v-.97c0-.63.21-1.13.62-1.5.41-.37.93-.55,1.55-.55.34,0,.6.04.8.11v1.13Z"/><rect class="cls-6" x="300.72" y="57.29" width="75.05" height="37.52"/><g class="cls-4"><path class="cls-1" d="m333.72,67.79h-.72v-2.57c0-.96-.35-1.43-1.05-1.43-.36,0-.66.14-.9.41-.24.27-.35.61-.35,1.03v2.57h-.72v-4.5h.72v.75h.02c.34-.57.83-.85,1.48-.85.49,0,.87.16,1.13.48.26.32.39.78.39,1.38v2.75Z"/><path class="cls-1" d="m338.72,67.79h-.72v-.71h-.02c-.3.55-.76.82-1.39.82-1.07,0-1.61-.64-1.61-1.92v-2.69h.72v2.58c0,.95.36,1.42,1.09,1.42.35,0,.64-.13.87-.39.23-.26.34-.6.34-1.02v-2.59h.72v4.5Z"/><path class="cls-1" d="m346.57,67.79h-.72v-2.59c0-.5-.08-.86-.23-1.08-.15-.22-.41-.33-.78-.33-.31,0-.57.14-.79.42-.21.28-.32.62-.32,1.01v2.57h-.72v-2.67c0-.89-.34-1.33-1.02-1.33-.32,0-.58.13-.78.4-.21.27-.31.61-.31,1.04v2.57h-.72v-4.5h.72v.71h.02c.32-.55.79-.82,1.4-.82.31,0,.58.09.8.26s.39.4.47.67c.33-.62.83-.93,1.5-.93.99,0,1.49.61,1.49,1.83v2.77Z"/></g><path class="cls-1" d="m335.61,83.99v-1.28c.55.43,1.17.65,1.85.65.56,0,1-.13,1.34-.38.33-.25.5-.6.5-1.03,0-.95-.73-1.43-2.19-1.43h-.65v-1.09h.62c1.29,0,1.94-.45,1.94-1.35,0-.83-.5-1.24-1.51-1.24-.56,0-1.09.2-1.59.6v-1.21c.57-.32,1.24-.48,2.02-.48s1.34.19,1.79.56c.45.38.67.86.67,1.44,0,1.11-.56,1.82-1.69,2.13v.02c.61.06,1.08.27,1.44.64.35.37.53.82.53,1.37,0,.75-.28,1.36-.85,1.83-.57.46-1.31.69-2.24.69-.83,0-1.5-.15-1.99-.45Z"/><g><path class="cls-2" d="m16.85,27.5c.57.07,1.13.1,1.69.1.17,0,.35,0,.51-.01.58-.03.87-.39.87-1.09v-5.21h-6.56c-.23,2.87-.87,5.28-1.94,7.23-.08.18-.15.28-.22.28-.05,0-.15-.06-.29-.17-.23-.18-.46-.32-.7-.41.89-1.42,1.5-3.06,1.82-4.93.25-1.48.38-3.37.38-5.67v-2.48l-.05-3.2c-.39.52-.76.95-1.1,1.31-.13.15-.22.22-.28.22-.06,0-.17-.08-.31-.25-.16-.16-.35-.29-.56-.39,1.69-1.66,3.03-3.66,4.03-5.99.27-.7.43-1.28.48-1.74.4.1.79.24,1.15.41.18.09.28.17.28.26,0,.11-.07.22-.22.33-.15.12-.35.46-.59,1.02l-.13.26h3.02c.2,0,.35-.03.46-.08.11-.05.18-.08.21-.08.12,0,.3.1.54.31.31.26.46.45.46.58s-.07.24-.21.34c-.17.1-.32.3-.46.59-.51,1.03-1.03,1.96-1.56,2.79h.56l2.74-.05c.12,0,.18.06.18.18l-.05,3.17v8.05l.03,3.55c0,.78-.21,1.32-.62,1.64-.39.29-1.25.43-2.58.43-.23,0-.36-.02-.41-.07-.04-.03-.1-.16-.16-.37-.08-.32-.21-.62-.41-.89Zm-2.2-19.15c-.61,1.21-1.34,2.35-2.18,3.44h.08l2.71.05h1.1c.77-1.18,1.38-2.34,1.84-3.49h-3.55Zm-1.18,9.35c0,.68-.02,1.56-.05,2.62h2.77v-3.34h-2.71v.72Zm0-4.89v3.17h2.71v-3.17h-2.71Zm6.45,0h-2.71v3.17h2.71v-3.17Zm-2.71,4.17v3.34h2.71v-3.34h-2.71Zm14.64-8.98h-4.35c-.14,1.62-.6,2.93-1.38,3.95-.66.87-1.67,1.69-3.06,2.48-.16.09-.26.13-.3.13-.07,0-.18-.09-.34-.26-.18-.2-.41-.38-.7-.54,1.62-.76,2.77-1.61,3.46-2.56.61-.83.99-1.9,1.13-3.2h-.72l-3.15.05c-.12,0-.18-.06-.18-.18v-.79c0-.12.06-.18.18-.18l3.15.05h4.13l3.17-.05c.14,0,.21.07.21.22-.03.15-.04.35-.05.62-.02.31-.03.49-.03.54-.12,2.02-.33,3.48-.62,4.38-.29.77-.94,1.15-1.94,1.15-.72,0-1.3-.02-1.74-.05-.21-.02-.33-.05-.37-.09-.03-.03-.07-.15-.09-.34-.04-.3-.14-.59-.29-.89.74.15,1.45.22,2.12.22.72,0,1.15-.23,1.29-.7.24-.94.4-2.26.46-3.96Zm-6.3,15.24l-3.41.05c-.12,0-.18-.07-.18-.21v-.79c0-.12.06-.18.18-.18l3.41.05h2.07v-3.31h-3.41c-.29.58-.67,1.21-1.15,1.9-.13.19-.23.29-.3.29-.04,0-.09-.02-.16-.07-.25-.16-.53-.28-.83-.35.88-1.05,1.6-2.29,2.14-3.71.19-.52.32-1.02.38-1.52.35.09.7.2,1.05.34.17.08.26.17.26.28s-.05.19-.16.26c-.1.08-.21.29-.34.64l-.38.92h2.9v-1.31c0-.73-.05-1.38-.16-1.94.37.02.8.06,1.31.13.17.04.26.1.26.2,0,.04-.04.18-.13.41-.09.2-.13.6-.13,1.21v1.31h1.23l3.1-.05c.12,0,.18.06.18.18v.76c0,.12-.06.18-.18.18l-3.1-.05h-1.23v3.31h1.99l3.41-.05c.1,0,.16.06.16.18v.79c0,.14-.05.21-.16.21l-3.41-.05h-1.99v2.15l.05,3.44c0,.12-.06.18-.18.18h-.89c-.12,0-.18-.06-.18-.18l.05-3.44v-2.15h-2.07Z"/><path class="cls-2" d="m49.79,12.6c1.39,1.43,3.21,2.69,5.47,3.79,2.02.99,4.17,1.73,6.47,2.22-.24.17-.48.44-.71.81-.12.22-.23.33-.31.33-.04,0-.14-.02-.3-.07-2.47-.72-4.76-1.69-6.87-2.91-1.89-1.09-3.4-2.26-4.54-3.5-2.87,2.86-6.5,5.04-10.89,6.54-.17.07-.28.1-.33.1-.07,0-.17-.1-.31-.31-.19-.32-.42-.56-.67-.7,4.63-1.42,8.28-3.45,10.96-6.1.45-.45.73-.84.85-1.15.59.11,1,.21,1.23.29.22.09.33.19.33.3,0,.12-.07.21-.21.26l-.17.09Zm-5.34-3.55c.54.87,1.04,1.93,1.5,3.2.02.04.03.07.03.09,0,.08-.09.14-.26.2l-.56.2c-.14.04-.23.07-.26.07-.06,0-.11-.05-.14-.16-.49-1.5-1.01-2.69-1.56-3.59h-2.14c-.8,1.21-1.64,2.23-2.53,3.06-.15.15-.24.22-.29.22s-.15-.07-.33-.22c-.19-.17-.42-.29-.7-.37,1.63-1.42,2.97-3.24,4.03-5.48.16-.32.28-.73.35-1.21.51.13.92.27,1.23.41.16.06.24.15.24.26,0,.09-.08.2-.24.33-.1.08-.24.28-.41.62-.35.67-.59,1.1-.72,1.31h4.21l2.66-.05c.12,0,.18.06.18.18v.81c0,.12-.06.18-.18.18l-2.66-.05h-1.44Zm-1.32,18.68v1.18c0,.12-.06.18-.18.18h-.92c-.12,0-.18-.06-.18-.18l.05-3.79v-1.48l-.05-2.18c0-.12.06-.18.18-.18l3.69.05h7.06l3.69-.05c.12,0,.18.06.18.18l-.05,1.92v1.67l.05,3.76c0,.12-.06.18-.18.18h-.92c-.12,0-.18-.06-.18-.18v-1.08h-12.22Zm0-1.08h12.22v-4.25h-12.22v4.25Zm7.9-7.74h-3.7l-3.02.05c-.12,0-.18-.06-.18-.18v-.81c0-.12.06-.18.18-.18l3.02.05h3.7l3.04-.05c.12,0,.18.06.18.18v.81c0,.12-.06.18-.18.18l-3.04-.05Zm3.84-9.86c.6,1.05,1.09,2.12,1.46,3.2.02.04.03.06.03.08,0,.07-.1.14-.3.21l-.47.16c-.18.07-.29.1-.34.1s-.09-.05-.12-.14c-.42-1.36-.94-2.57-1.56-3.61h-2.5c-.39.71-.87,1.39-1.42,2.03-.14.18-.24.26-.29.26-.06,0-.18-.07-.35-.22-.18-.16-.41-.27-.67-.33,1.17-1.22,2.07-2.74,2.7-4.54.13-.42.21-.78.22-1.08.52.1.93.22,1.21.35.16.06.24.14.24.24,0,.09-.07.21-.21.35-.07.06-.19.28-.35.67-.06.17-.15.38-.26.64-.14.31-.22.49-.25.54h5.84l3.15-.05c.12,0,.18.06.18.18v.81c0,.12-.06.18-.18.18l-3.15-.05h-2.58Z"/><path class="cls-2" d="m68.03,11.33v13.43l.05,4.25c0,.12-.07.18-.2.18h-.9c-.12,0-.18-.06-.18-.18l.05-4.25v-7.03c0-.97.02-2.37.05-4.2-.77,1.37-1.65,2.71-2.64,4.01-.11.16-.2.24-.26.24-.07,0-.16-.08-.28-.24-.14-.2-.34-.38-.59-.55,2.53-3.13,4.29-6.46,5.29-9.98.22-.8.34-1.4.35-1.81.37.09.8.23,1.31.43.17.05.25.14.25.28,0,.12-.08.25-.25.37-.1.09-.27.43-.49,1.02-.49,1.51-1.01,2.85-1.57,4.03Zm6.16,1.08h2.99c.3,0,.52-.04.67-.13.1-.05.21-.08.3-.08.13,0,.36.15.7.46.25.24.38.44.38.59,0,.13-.06.24-.17.33-.12.1-.22.39-.29.88-.72,3.46-1.77,6.26-3.16,8.41-1.12,1.71-2.77,3.47-4.96,5.29-.16.12-.26.18-.3.18-.05,0-.16-.1-.31-.29-.18-.23-.42-.42-.72-.56,2.9-2.06,5.01-4.42,6.33-7.07-.73-.89-1.63-1.73-2.69-2.52-.07-.06-.1-.11-.1-.16,0-.04.05-.12.16-.25l.3-.38c.08-.1.15-.14.21-.14.04,0,.08.02.13.07.94.69,1.79,1.43,2.53,2.23.73-1.76,1.22-3.68,1.48-5.77h-3.84c-.77,2-1.9,3.91-3.38,5.72-.12.15-.22.22-.29.22s-.16-.07-.28-.2c-.23-.23-.46-.39-.71-.49,2.65-2.81,4.24-6.26,4.76-10.36h-.33l-2.85.05c-.12,0-.18-.06-.18-.18v-.81c0-.12.06-.18.18-.18l2.85.05h3.25l2.85-.05c.13,0,.2.06.2.18v.81c0,.12-.07.18-.2.18l-2.85-.05h-1.74c-.23,1.43-.53,2.78-.92,4.03Zm6.82-4.56c.5.03.94.08,1.34.16.17.03.25.09.25.2,0,.02-.04.16-.13.42-.07.2-.1,1.11-.1,2.74v6.96l.05,3.38c0,.12-.07.18-.2.18h-.88c-.12,0-.18-.06-.18-.18l.05-3.38v-6.91c0-1.82-.07-3.01-.2-3.57Zm1.1,19.58c.76.07,1.46.1,2.1.1.56,0,.94-.1,1.14-.29.21-.19.31-.55.31-1.08V8.73c0-1.48-.07-2.51-.2-3.1.35.02.82.06,1.4.13.2.04.3.11.3.22,0,.09-.06.26-.17.51-.09.22-.13.95-.13,2.2v14.02l.03,3.62c0,.96-.24,1.61-.71,1.95-.39.31-1.13.47-2.22.47-.27,0-.55,0-.84-.01-.23,0-.36-.02-.41-.07-.04-.04-.1-.16-.16-.37-.07-.31-.22-.62-.46-.9Z"/></g><g><path d="m131.84,9.72h-1.71v2.58h2.21l1.16-.03c.06,0,.08.03.08.08v.26c0,.05-.03.08-.08.08l-1.16-.03h-2.21v3.25c.83.15,1.93.23,3.3.23.59,0,1.23-.01,1.95-.03-.07.09-.12.19-.14.3-.02.09-.04.14-.06.15-.02.01-.07.02-.15.02-.24,0-.57.01-1.01.01-2.74,0-4.6-.26-5.58-.79-.44-.24-.8-.56-1.08-.98-.16-.24-.33-.57-.5-.99-.4,1.16-1.12,2.15-2.16,2.97-.06.04-.11.06-.13.06s-.06-.03-.12-.09c-.07-.07-.15-.12-.24-.14,1.59-1.11,2.48-2.74,2.68-4.89.01-.17.02-.31.02-.43,0-.08,0-.16,0-.26.12.02.26.04.43.08.11.03.16.08.16.12,0,.03-.03.1-.08.19-.06.1-.1.19-.11.28-.09.63-.19,1.15-.3,1.55.29.77.62,1.34,1,1.7.41.39.99.68,1.73.87v-6.12h-1.55l-1.84.03c-.06,0-.08-.03-.08-.08v-.28c0-.05.03-.08.08-.08l1.84.03h3.67l1.84-.03c.05,0,.08.03.08.08v.28c0,.05-.03.08-.08.08l-1.84-.03Zm-6.61-2.38v2c0,.05-.03.08-.08.08h-.29c-.06,0-.08-.03-.08-.08l.03-1.3v-.4l-.03-.62c0-.05.03-.08.08-.08l1.89.03h2.87v-.23c0-.7-.03-1.17-.1-1.42.21.01.38.03.51.06.09.02.13.05.13.1,0,.03-.03.11-.08.23-.05.11-.07.45-.07,1.03v.23h3.19l1.89-.03c.05,0,.08.03.08.08l-.03.55v.46l.03,1.3c0,.05-.03.08-.08.08h-.29c-.05,0-.08-.03-.08-.08v-2h-9.5Z"/><path d="m147,12.69l-2.52.05c.17.58.43,1.16.8,1.74.27-.21.54-.45.82-.73.19-.19.33-.39.43-.6.12.06.23.13.33.21.07.05.1.09.1.14,0,.04-.05.08-.15.12-.08.03-.16.1-.26.21-.42.42-.77.73-1.06.95.39.54.83,1,1.35,1.37.4.29.71.44.91.44.42,0,.71-.57.89-1.71.03.06.1.14.21.23.08.06.12.12.12.15,0,0,0,.04-.02.11-.23,1.08-.63,1.62-1.21,1.62-.37,0-.82-.22-1.35-.65-.45-.37-.86-.81-1.22-1.32-.89.61-1.92,1.07-3.1,1.39-.07.02-.11.03-.13.03-.03,0-.08-.04-.13-.13-.04-.08-.11-.14-.19-.2,1.34-.32,2.46-.79,3.35-1.41-.36-.56-.64-1.21-.87-1.93l-3.21.07v1.32c.78-.15,1.49-.32,2.12-.49-.02.05-.04.12-.06.21,0,.09-.01.14-.03.16-.01.02-.06.04-.13.05-.58.17-1.22.32-1.91.46v1.48c.01.27,0,.47-.05.58-.04.11-.12.19-.22.25-.23.12-.65.19-1.26.19h-.28c-.09,0-.14,0-.15-.03-.01-.01-.03-.06-.06-.14-.03-.09-.09-.19-.19-.31.3.03.66.05,1.08.05.32,0,.53-.04.62-.13.08-.07.12-.22.12-.44v-1.44c-.6.11-1.22.2-1.84.28-.35.04-.54.08-.58.12-.03.03-.07.05-.12.05s-.08-.03-.11-.09c-.05-.11-.11-.26-.18-.45.44,0,.92-.03,1.44-.1.51-.05.97-.11,1.38-.18v-1.41l-1.43.03c-.55,0-1.01.02-1.39.04-.07,0-.17,0-.28.01h-.08c-.05,0-.08-.03-.08-.08v-.26s.03-.07.08-.07h.42c.35,0,.8,0,1.34-.01l1.42-.03v-1.13c-.59.14-1.27.25-2.05.34-.05,0-.08,0-.08,0-.05,0-.1-.04-.16-.13-.06-.09-.13-.16-.2-.21,1.47-.12,2.65-.35,3.56-.68.21-.07.38-.16.51-.26.17.11.28.19.33.24.05.04.08.08.08.13,0,.07-.05.1-.16.1s-.25.02-.4.07c-.41.13-.75.23-1.03.3v1.23l3.11-.06c-.12-.46-.2-.9-.26-1.3-.05-.32-.11-.55-.17-.69.21,0,.36,0,.46.01.1.02.15.05.15.1,0,.02,0,.05-.02.09-.01.04-.02.07-.02.08,0,.04-.01.1-.01.16,0,.09,0,.21.03.37.05.43.12.82.21,1.17l2.65-.05c.56-.01,1.02-.03,1.39-.04.08,0,.18,0,.29-.01.05,0,.07,0,.08,0,.04,0,.06.03.06.08v.25c0,.05-.03.08-.08.08-.33,0-.92,0-1.78.03Zm-.23-2.63h-7.46l-1.8.03c-.06,0-.08-.03-.08-.08v-.25c0-.05.03-.08.08-.08l1.8.03h3.44v-1.24h-1.89l-1.89.03c-.05,0-.08-.03-.08-.08v-.25c0-.05.03-.08.08-.08l1.89.03h1.89v-1.14h-2.55l-1.89.03c-.06,0-.08-.03-.08-.08v-.26c0-.05.03-.08.08-.08l1.89.03h1.17c-.21-.34-.5-.7-.88-1.08-.02-.02-.03-.03-.03-.04,0-.02.04-.05.11-.11.08-.06.13-.1.15-.1.01,0,.03.01.05.03.42.39.77.82,1.05,1.3h2.29c.25-.32.47-.64.64-.94.08-.12.14-.29.2-.49.12.04.24.09.38.17.07.04.1.08.1.12,0,.04-.04.08-.12.13-.03.02-.11.11-.22.26-.21.31-.41.56-.58.75h1.38l1.89-.03c.05,0,.08.03.08.08v.26c0,.05-.03.08-.08.08l-1.89-.03h-2.76v1.14h2.05l1.89-.03c.06,0,.08.03.08.08v.25c0,.05-.03.08-.08.08l-1.89-.03h-2.05v1.24h3.64l1.8-.03c.05,0,.08.03.08.08v.25c0,.05-.03.08-.08.08l-1.8-.03Zm-1.26.76s-.04-.03-.04-.04c0-.01.03-.05.09-.12.07-.08.11-.12.13-.12.01,0,.03,0,.05.02.5.26.99.59,1.49.99.03.02.04.04.04.05,0,.02-.04.08-.11.17-.06.09-.1.13-.12.13s-.04-.01-.06-.04c-.42-.37-.91-.72-1.47-1.04Z"/><path d="m152.01,6.08c.33.05.55.1.66.15.09.03.13.09.13.17,0,0-.03.1-.09.29-.04.12-.08.52-.12,1.19-.15,2.53-.22,4.45-.22,5.75,0,.86.17,1.47.51,1.82.29.3.74.44,1.34.44,1.76,0,3.4-.88,4.91-2.63.04.16.09.31.16.45.02.03.03.06.03.08,0,.03-.03.08-.08.13-1.59,1.62-3.31,2.43-5.16,2.43-1.46,0-2.18-.89-2.18-2.67,0-.67.03-1.66.08-2.97.06-1.54.1-2.5.11-2.9.01-.39.02-.65.02-.8,0-.36-.03-.66-.1-.92Z"/><path d="m158.91,8.38c.32,0,.76-.04,1.33-.13,2.42-.39,5.25-.76,8.5-1.13.02,0,.04,0,.06,0,.06,0,.11.03.13.08.03.08.04.18.04.31,0,.08-.04.12-.12.12-.86.04-1.59.2-2.2.47-1.11.51-1.99,1.16-2.64,1.94-.64.77-.96,1.59-.96,2.44,0,1.19.55,2.04,1.64,2.56.57.27,1.44.48,2.61.64.1,0,.15.04.15.1,0,.1,0,.19-.03.28,0,.09-.05.13-.12.13-.02,0-.03,0-.05,0-3.1-.26-4.66-1.49-4.66-3.68,0-1.01.37-1.95,1.12-2.79.67-.75,1.59-1.4,2.78-1.93v-.03c-2.31.32-4.36.64-6.18.98-.39.07-.64.13-.75.17-.03,0-.07.02-.13.06-.04.02-.07.03-.09.03-.07,0-.13-.03-.17-.09-.09-.13-.18-.31-.25-.53Z"/><path d="m169.86,11.14c1.34-1.55,2.3-3.22,2.9-5.02.12-.36.19-.64.19-.85.15.05.32.12.49.21.07.04.1.08.1.12,0,.06-.03.11-.09.15-.07.03-.16.19-.26.47-.33.83-.65,1.56-.96,2.17v6.54l.03,2.12c0,.05-.03.08-.08.08h-.3c-.05,0-.08-.03-.08-.08l.03-2.12v-3.71c0-.77.01-1.49.04-2.15-.47.8-.97,1.52-1.51,2.16-.05.06-.08.09-.1.09s-.07-.03-.14-.08c-.08-.05-.16-.08-.25-.1Zm4.84,1.86s-.02-.04-.02-.05c0-.02.05-.06.14-.12.09-.05.14-.08.16-.08.01,0,.03.01.04.04.4.64.86,1.18,1.37,1.62.3-.43.52-.93.65-1.48.05-.24.08-.48.1-.71h-1.23l-1.84.03c-.05,0-.08-.03-.08-.08l.03-.99v-.91l-.03-.99c0-.05.03-.08.08-.08l1.84.03h1.38v-1.55h-1.84l-1.89.03c-.05,0-.08-.03-.08-.08v-.28c0-.05.03-.08.08-.08l1.89.03h1.84v-.44c0-.67-.03-1.16-.09-1.47.21.02.38.03.52.05.08.01.12.05.12.11,0,.01-.02.1-.07.25-.05.17-.08.52-.08,1.05v.45h2.29l1.89-.03c.06,0,.08.03.08.08v.28c0,.05-.03.08-.08.08l-1.89-.03h-2.29v1.55h1.52l1.83-.03c.05,0,.08.03.08.08l-.03.99v.91l.03.99c0,.05-.03.08-.08.08l-1.83-.03h-1.66c-.03.24-.06.46-.11.68-.14.63-.39,1.22-.76,1.75.76.6,1.69,1.04,2.78,1.35.75.21,1.68.37,2.79.49-.08.06-.15.15-.21.29-.04.09-.08.13-.12.13-.02,0-.06,0-.12-.01-2.31-.3-4.09-.94-5.36-1.93-.69.81-1.72,1.48-3.1,2.01-.06.02-.1.03-.12.03-.03,0-.08-.04-.14-.11-.07-.09-.16-.15-.25-.19,1.54-.56,2.64-1.23,3.29-2-.59-.53-1.07-1.1-1.46-1.71Zm2.5-1.14c.04-.45.07-1.2.09-2.27h-2.84v2.27h2.75Zm3.49,0v-2.27h-3c-.02.92-.05,1.68-.09,2.27h3.09Z"/><path d="m184.22,9.93c.36,0,.85-.11,1.46-.31.85-.26,1.41-.42,1.7-.49.39-.09.75-.13,1.1-.13.64,0,1.17.24,1.57.71.43.5.65,1.22.65,2.15,0,1.16-.37,2.16-1.12,3.01-.6.69-1.5,1.3-2.72,1.83-.03.01-.07.02-.1.02-.03,0-.06-.02-.09-.05-.07-.08-.18-.16-.34-.26,1.34-.51,2.37-1.23,3.08-2.15.54-.69.8-1.48.8-2.36,0-1.64-.65-2.46-1.95-2.46-.32,0-.94.13-1.84.4-.28.09-.72.25-1.32.49-.05.02-.14.07-.26.14-.07.04-.12.06-.15.06-.09,0-.17-.04-.22-.13-.09-.14-.17-.3-.24-.49Zm2.11-4.09c1.13.5,2.29.82,3.49.98.07.01.11.05.11.11v.03c-.02.12-.03.21-.04.26-.01.07-.05.11-.1.11h-.03c-1.2-.21-2.36-.54-3.48-1-.02-.01-.03-.03-.03-.06,0-.02,0-.04,0-.06.02-.13.04-.25.08-.37Z"/><path d="m196.32,5.96c.26.01.48.04.65.09.07.02.1.05.1.09l-.05.39v.06c.01.28.04.56.08.84.16,1.25.36,2.22.6,2.91.4-.18,1.33-.58,2.79-1.17.32-.12.54-.26.67-.42.2.16.34.31.42.46.02.03.03.06.03.09,0,.08-.06.13-.19.15-.28.05-.67.17-1.16.35-1.31.5-2.28.91-2.91,1.24-.86.45-1.47.88-1.8,1.28-.36.42-.53.9-.53,1.46,0,.75.44,1.27,1.31,1.53.56.18,1.4.26,2.5.26.98,0,2.02-.09,3.1-.26h.03c.05,0,.08.03.1.08.01.05.03.15.06.31v.04c0,.06-.05.09-.16.1-1.02.12-2.03.19-3.01.19-1.45,0-2.51-.15-3.18-.44-.81-.35-1.21-.94-1.21-1.76,0-.75.25-1.38.76-1.9.38-.39,1.04-.85,1.99-1.37-.3-.87-.55-2.02-.73-3.44-.06-.49-.14-.87-.26-1.16Z"/><path d="m208.55,7.87l-.39-1.15c-.15-.43-.3-.72-.44-.87.16-.04.32-.06.49-.06.06,0,.12,0,.17,0,.1.01.15.05.15.12,0,.01,0,.03,0,.04v.13c0,.09.05.31.15.67,0,.05.11.39.3,1,1.36-.31,2.39-.58,3.08-.82.03,0,.05-.01.05-.01.03,0,.05.02.06.06.05.14.07.23.08.26,0,.02,0,.03,0,.05,0,.04-.03.07-.08.1-1.14.34-2.16.6-3.05.79.19.51.43,1.1.73,1.75,1.07-.23,1.99-.5,2.77-.82.02,0,.04-.01.06-.01.04,0,.07.03.08.08l.1.28v.04s-.03.08-.1.11c-.9.29-1.81.53-2.71.72.63,1.27,1.36,2.25,2.18,2.95.05.03.07.07.07.1,0,.01,0,.03-.01.04-.05.12-.11.22-.19.3-.03.04-.07.06-.1.06s-.07-.01-.11-.04c-.24-.17-.58-.34-1.04-.51-.75-.26-1.59-.39-2.54-.39-1.67,0-2.51.49-2.51,1.46,0,1.16,1.18,1.75,3.53,1.75.4,0,.83-.02,1.29-.06.05,0,.07.02.07.05,0,.01,0,.04,0,.07-.01.07-.03.14-.06.21-.01.09-.05.13-.1.13-.39.04-.84.06-1.33.06-1.31,0-2.3-.2-2.96-.6-.6-.37-.91-.9-.91-1.59,0-.63.29-1.12.88-1.46.51-.3,1.2-.46,2.07-.46,1.29,0,2.31.21,3.06.62-.59-.61-1.17-1.47-1.75-2.56-1.43.27-2.75.43-3.99.48-.06,0-.1-.03-.12-.1-.03-.05-.06-.17-.08-.35,1.44-.04,2.76-.19,3.98-.45-.27-.62-.51-1.2-.7-1.75-1.11.22-2.35.37-3.72.44-.06,0-.11-.03-.13-.1-.02-.06-.04-.18-.06-.35,1.15-.03,2.41-.15,3.78-.38Z"/></g><g><path d="m309.21,9.72h-1.71v2.58h2.21l1.16-.03c.06,0,.08.03.08.08v.26c0,.05-.03.08-.08.08l-1.16-.03h-2.21v3.25c.83.15,1.93.23,3.3.23.59,0,1.23-.01,1.95-.03-.07.09-.12.19-.14.3-.02.09-.04.14-.06.15-.02.01-.07.02-.15.02-.24,0-.57.01-1.01.01-2.74,0-4.6-.26-5.58-.79-.44-.24-.8-.56-1.08-.98-.16-.24-.33-.57-.5-.99-.4,1.16-1.12,2.15-2.16,2.97-.06.04-.11.06-.13.06s-.06-.03-.12-.09c-.07-.07-.15-.12-.24-.14,1.59-1.11,2.48-2.74,2.68-4.89.01-.17.02-.31.02-.43,0-.08,0-.16,0-.26.12.02.26.04.43.08.11.03.16.08.16.12,0,.03-.03.1-.08.19-.06.1-.1.19-.11.28-.09.63-.19,1.15-.3,1.55.29.77.62,1.34,1,1.7.41.39.99.68,1.73.87v-6.12h-1.55l-1.84.03c-.06,0-.08-.03-.08-.08v-.28c0-.05.03-.08.08-.08l1.84.03h3.67l1.84-.03c.05,0,.08.03.08.08v.28c0,.05-.03.08-.08.08l-1.84-.03Zm-6.61-2.38v2c0,.05-.03.08-.08.08h-.29c-.06,0-.08-.03-.08-.08l.03-1.3v-.4l-.03-.62c0-.05.03-.08.08-.08l1.89.03h2.87v-.23c0-.7-.03-1.17-.1-1.42.21.01.38.03.51.06.09.02.13.05.13.1,0,.03-.03.11-.08.23-.05.11-.07.45-.07,1.03v.23h3.19l1.89-.03c.05,0,.08.03.08.08l-.03.55v.46l.03,1.3c0,.05-.03.08-.08.08h-.29c-.05,0-.08-.03-.08-.08v-2h-9.5Z"/><path d="m324.37,12.69l-2.52.05c.17.58.43,1.16.8,1.74.27-.21.54-.45.82-.73.19-.19.33-.39.43-.6.12.06.23.13.33.21.07.05.1.09.1.14,0,.04-.05.08-.15.12-.08.03-.16.1-.26.21-.42.42-.77.73-1.06.95.39.54.83,1,1.35,1.37.4.29.71.44.91.44.42,0,.71-.57.89-1.71.03.06.1.14.21.23.08.06.12.12.12.15,0,0,0,.04-.02.11-.23,1.08-.63,1.62-1.21,1.62-.37,0-.82-.22-1.35-.65-.45-.37-.86-.81-1.22-1.32-.89.61-1.92,1.07-3.1,1.39-.07.02-.11.03-.13.03-.03,0-.08-.04-.13-.13-.04-.08-.11-.14-.19-.2,1.34-.32,2.46-.79,3.35-1.41-.36-.56-.64-1.21-.87-1.93l-3.21.07v1.32c.78-.15,1.49-.32,2.12-.49-.02.05-.04.12-.06.21,0,.09-.01.14-.03.16-.01.02-.06.04-.13.05-.58.17-1.22.32-1.91.46v1.48c.01.27,0,.47-.05.58-.04.11-.12.19-.22.25-.23.12-.65.19-1.26.19h-.28c-.09,0-.14,0-.15-.03-.01-.01-.03-.06-.06-.14-.03-.09-.09-.19-.19-.31.3.03.66.05,1.08.05.32,0,.53-.04.62-.13.08-.07.12-.22.12-.44v-1.44c-.6.11-1.22.2-1.84.28-.35.04-.54.08-.58.12-.03.03-.07.05-.12.05s-.08-.03-.11-.09c-.05-.11-.11-.26-.18-.45.44,0,.92-.03,1.44-.1.51-.05.97-.11,1.38-.18v-1.41l-1.43.03c-.55,0-1.01.02-1.39.04-.07,0-.17,0-.28.01h-.08c-.05,0-.08-.03-.08-.08v-.26s.03-.07.08-.07h.42c.35,0,.8,0,1.34-.01l1.42-.03v-1.13c-.59.14-1.27.25-2.05.34-.05,0-.08,0-.08,0-.05,0-.1-.04-.16-.13-.06-.09-.13-.16-.2-.21,1.47-.12,2.65-.35,3.56-.68.21-.07.38-.16.51-.26.17.11.28.19.33.24.05.04.08.08.08.13,0,.07-.05.1-.16.1s-.25.02-.4.07c-.41.13-.75.23-1.03.3v1.23l3.11-.06c-.12-.46-.2-.9-.26-1.3-.05-.32-.11-.55-.17-.69.21,0,.36,0,.46.01.1.02.15.05.15.1,0,.02,0,.05-.02.09-.01.04-.02.07-.02.08,0,.04-.01.1-.01.16,0,.09,0,.21.03.37.05.43.12.82.21,1.17l2.65-.05c.56-.01,1.02-.03,1.39-.04.08,0,.18,0,.29-.01.05,0,.07,0,.08,0,.04,0,.06.03.06.08v.25c0,.05-.03.08-.08.08-.33,0-.92,0-1.78.03Zm-.23-2.63h-7.46l-1.8.03c-.06,0-.08-.03-.08-.08v-.25c0-.05.03-.08.08-.08l1.8.03h3.44v-1.24h-1.89l-1.89.03c-.05,0-.08-.03-.08-.08v-.25c0-.05.03-.08.08-.08l1.89.03h1.89v-1.14h-2.55l-1.89.03c-.06,0-.08-.03-.08-.08v-.26c0-.05.03-.08.08-.08l1.89.03h1.17c-.21-.34-.5-.7-.88-1.08-.02-.02-.03-.03-.03-.04,0-.02.04-.05.11-.11.08-.06.13-.1.15-.1.01,0,.03.01.05.03.42.39.77.82,1.05,1.3h2.29c.25-.32.47-.64.64-.94.08-.12.14-.29.2-.49.12.04.24.09.38.17.07.04.1.08.1.12,0,.04-.04.08-.12.13-.03.02-.11.11-.22.26-.21.31-.41.56-.58.75h1.38l1.89-.03c.05,0,.08.03.08.08v.26c0,.05-.03.08-.08.08l-1.89-.03h-2.76v1.14h2.05l1.89-.03c.06,0,.08.03.08.08v.25c0,.05-.03.08-.08.08l-1.89-.03h-2.05v1.24h3.64l1.8-.03c.05,0,.08.03.08.08v.25c0,.05-.03.08-.08.08l-1.8-.03Zm-1.26.76s-.04-.03-.04-.04c0-.01.03-.05.09-.12.07-.08.11-.12.13-.12.01,0,.03,0,.05.02.5.26.99.59,1.49.99.03.02.04.04.04.05,0,.02-.04.08-.11.17-.06.09-.1.13-.12.13s-.04-.01-.06-.04c-.42-.37-.91-.72-1.47-1.04Z"/><path d="m327.37,12.34c1.28-1.11,2.24-2.3,2.88-3.56.1-.22.16-.42.19-.62.15.05.31.12.47.19.07.04.1.09.1.14,0,.06-.03.1-.09.13-.09.05-.19.17-.3.36-.3.51-.58.96-.85,1.34v4.96l.03,1.76c0,.05-.03.08-.08.08h-.3c-.05,0-.08-.03-.08-.08l.03-1.76v-2.67c0-.14.01-.74.04-1.82-.47.61-.98,1.16-1.53,1.64-.07.06-.11.09-.13.09s-.06-.03-.13-.08c-.05-.04-.13-.07-.24-.1Zm.22-3.83c1.03-.66,1.9-1.53,2.6-2.61.12-.19.2-.38.24-.57.17.06.33.14.48.24.05.04.08.08.08.13,0,.03-.04.08-.13.13-.07.04-.17.15-.29.31-.77,1.01-1.59,1.85-2.47,2.51-.07.05-.12.08-.14.08s-.06-.03-.12-.09c-.04-.03-.12-.08-.24-.14Zm2.84,6.2c1.29-.69,2.29-1.64,3.01-2.84.18-.3.29-.57.33-.8.09.03.23.1.41.19.06.03.09.08.09.13,0,.03-.03.07-.1.12-.04.02-.12.13-.24.31l-.34.53h2.93c.14,0,.24-.01.29-.04.03-.02.07-.03.11-.03.06,0,.14.05.25.15.09.09.13.16.13.21,0,.06-.03.11-.09.15-.05.02-.13.1-.24.26-.5.71-1.03,1.31-1.61,1.8,1.04.72,2.46,1.26,4.24,1.63-.13.07-.22.16-.26.26-.05.09-.09.14-.12.14-.02,0-.05,0-.1-.02-1.77-.5-3.12-1.09-4.04-1.77-1.06.84-2.44,1.45-4.15,1.84-.05,0-.08.01-.1.01-.03,0-.08-.04-.13-.12-.06-.09-.14-.17-.22-.21,1.76-.34,3.2-.92,4.3-1.76-.6-.48-1.16-1.1-1.68-1.84-.61.73-1.33,1.35-2.16,1.87-.06.04-.1.06-.12.06s-.06-.03-.13-.1c-.07-.07-.15-.12-.24-.15Zm6.43-5.45s-.03-.04-.03-.05c0-.02.04-.06.12-.12.09-.07.14-.11.16-.11.01,0,.03.01.05.03.82.75,1.5,1.55,2.04,2.4.01.02.02.04.02.05,0,.02-.05.07-.15.15-.09.06-.15.09-.17.09-.02,0-.04-.02-.06-.05-.2-.32-.45-.68-.75-1.08-1.71.23-3.75.42-6.11.58-.36.03-.58.06-.66.08-.01,0-.04.02-.09.06-.03.02-.06.03-.08.03-.05,0-.1-.06-.15-.17-.04-.12-.08-.25-.1-.4.12,0,.24,0,.38,0,.12,0,.23,0,.33,0,.53-.02,1.07-.04,1.61-.08l.87-.9c-.73-.73-1.52-1.39-2.36-2-.03-.02-.04-.04-.04-.05,0-.02.03-.07.09-.15.07-.09.12-.13.14-.13.01,0,.03,0,.06.03l.78.59c.61-.74,1.11-1.46,1.51-2.14.12-.18.2-.38.25-.59.16.07.3.14.41.21.09.06.13.11.13.16,0,.05-.04.1-.13.15-.05.03-.15.15-.31.37-.6.86-1.12,1.55-1.56,2.09.39.33.82.72,1.3,1.17.65-.71,1.29-1.5,1.92-2.36.12-.17.22-.34.28-.51.14.07.26.14.37.22.09.07.13.13.13.18,0,.06-.04.1-.13.14-.09.03-.26.22-.51.55-.77.96-1.66,1.95-2.65,2.95,1.37-.09,2.72-.22,4.05-.37-.31-.35-.64-.68-.97-1Zm-3.53,3.44l-.04.05c.49.74,1.07,1.37,1.75,1.88.6-.5,1.16-1.15,1.66-1.93h-3.36Z"/><path d="m342.75,6.56c.23.08.4.17.51.26.06.05.09.09.09.13s-.03.12-.09.24c-.06.12-.11.26-.16.41-.49,1.88-.73,3.49-.73,4.82,0,1.14.1,2.09.31,2.84.01-.03.19-.45.53-1.27.19-.44.36-.83.5-1.19.1.16.18.27.23.33.03.03.04.06.04.09,0,.04-.02.11-.06.21-.33.75-.64,1.48-.92,2.2-.04.1-.06.2-.06.29l.03.24s-.01.06-.04.08c-.07.04-.16.06-.25.06-.05,0-.09-.03-.12-.1-.2-.45-.35-1.07-.46-1.86-.09-.66-.14-1.31-.14-1.97,0-1.24.22-2.8.67-4.68.09-.35.13-.73.13-1.13Zm2.81,6.7h.34c.06-.01.08.02.08.08.01,1.07.88,1.61,2.61,1.61.9,0,1.79-.06,2.7-.18.02,0,.04,0,.04,0,.05,0,.07.04.08.11v.22s.02.05.02.06c0,.05-.05.08-.14.09-.87.11-1.72.16-2.55.16-1.19,0-2.05-.22-2.58-.67-.4-.34-.6-.84-.62-1.49Zm.31-4.63v-.33c0-.09.04-.15.13-.15.98-.16,1.91-.24,2.81-.24.5,0,1.11.02,1.84.05.08,0,.12.04.12.12v.28c0,.06-.02.1-.06.1-.02,0-.03,0-.05,0-.62-.04-1.26-.06-1.92-.06-.92,0-1.88.08-2.87.24Z"/><path d="m352.76,11.14c1.34-1.55,2.3-3.22,2.9-5.02.12-.36.19-.64.19-.85.15.05.32.12.49.21.07.04.1.08.1.12,0,.06-.03.11-.09.15-.07.03-.16.19-.26.47-.33.83-.65,1.56-.96,2.17v6.54l.03,2.12c0,.05-.03.08-.08.08h-.3c-.05,0-.08-.03-.08-.08l.03-2.12v-3.71c0-.77.01-1.49.04-2.15-.47.8-.97,1.52-1.51,2.16-.05.06-.08.09-.1.09s-.07-.03-.14-.08c-.08-.05-.16-.08-.25-.1Zm4.84,1.86s-.02-.04-.02-.05c0-.02.05-.06.14-.12.09-.05.14-.08.16-.08.01,0,.03.01.04.04.4.64.86,1.18,1.37,1.62.3-.43.52-.93.65-1.48.05-.24.08-.48.1-.71h-1.23l-1.84.03c-.05,0-.08-.03-.08-.08l.03-.99v-.91l-.03-.99c0-.05.03-.08.08-.08l1.84.03h1.38v-1.55h-1.84l-1.89.03c-.05,0-.08-.03-.08-.08v-.28c0-.05.03-.08.08-.08l1.89.03h1.84v-.44c0-.67-.03-1.16-.09-1.47.21.02.38.03.52.05.08.01.12.05.12.11,0,.01-.02.1-.07.25-.05.17-.08.52-.08,1.05v.45h2.29l1.89-.03c.06,0,.08.03.08.08v.28c0,.05-.03.08-.08.08l-1.89-.03h-2.29v1.55h1.52l1.83-.03c.05,0,.08.03.08.08l-.03.99v.91l.03.99c0,.05-.03.08-.08.08l-1.83-.03h-1.66c-.03.24-.06.46-.11.68-.14.63-.39,1.22-.76,1.75.76.6,1.69,1.04,2.78,1.35.75.21,1.68.37,2.79.49-.08.06-.15.15-.21.29-.04.09-.08.13-.12.13-.02,0-.06,0-.12-.01-2.31-.3-4.09-.94-5.36-1.93-.69.81-1.72,1.48-3.1,2.01-.06.02-.1.03-.12.03-.03,0-.08-.04-.14-.11-.07-.09-.16-.15-.25-.19,1.54-.56,2.64-1.23,3.29-2-.59-.53-1.07-1.1-1.46-1.71Zm2.5-1.14c.04-.45.07-1.2.09-2.27h-2.84v2.27h2.75Zm3.49,0v-2.27h-3c-.02.92-.05,1.68-.09,2.27h3.09Z"/><path d="m367.12,9.93c.36,0,.85-.11,1.46-.31.85-.26,1.41-.42,1.7-.49.39-.09.75-.13,1.1-.13.64,0,1.17.24,1.57.71.43.5.65,1.22.65,2.15,0,1.16-.37,2.16-1.12,3.01-.6.69-1.5,1.3-2.72,1.83-.03.01-.07.02-.1.02-.03,0-.06-.02-.09-.05-.07-.08-.18-.16-.34-.26,1.34-.51,2.37-1.23,3.08-2.15.54-.69.8-1.48.8-2.36,0-1.64-.65-2.46-1.95-2.46-.32,0-.94.13-1.84.4-.28.09-.72.25-1.32.49-.05.02-.14.07-.26.14-.07.04-.12.06-.15.06-.09,0-.17-.04-.22-.13-.09-.14-.17-.3-.24-.49Zm2.11-4.09c1.13.5,2.29.82,3.49.98.07.01.11.05.11.11v.03c-.02.12-.03.21-.04.26-.01.07-.05.11-.1.11h-.03c-1.2-.21-2.36-.54-3.48-1-.02-.01-.03-.03-.03-.06,0-.02,0-.04,0-.06.02-.13.04-.25.08-.37Z"/><path d="m379.22,5.96c.26.01.48.04.65.09.07.02.1.05.1.09l-.05.39v.06c.01.28.04.56.08.84.16,1.25.36,2.22.6,2.91.4-.18,1.33-.58,2.79-1.17.32-.12.54-.26.67-.42.2.16.34.31.42.46.02.03.03.06.03.09,0,.08-.06.13-.19.15-.28.05-.67.17-1.16.35-1.31.5-2.28.91-2.91,1.24-.86.45-1.47.88-1.8,1.28-.36.42-.53.9-.53,1.46,0,.75.44,1.27,1.31,1.53.56.18,1.4.26,2.5.26.98,0,2.02-.09,3.1-.26h.03c.05,0,.08.03.1.08.01.05.03.15.06.31v.04c0,.06-.05.09-.16.1-1.02.12-2.03.19-3.01.19-1.45,0-2.51-.15-3.18-.44-.81-.35-1.21-.94-1.21-1.76,0-.75.25-1.38.76-1.9.38-.39,1.04-.85,1.99-1.37-.3-.87-.55-2.02-.73-3.44-.06-.49-.14-.87-.26-1.16Z"/><path d="m391.45,7.87l-.39-1.15c-.15-.43-.3-.72-.44-.87.16-.04.32-.06.49-.06.06,0,.12,0,.17,0,.1.01.15.05.15.12,0,.01,0,.03,0,.04v.13c0,.09.05.31.15.67,0,.05.11.39.3,1,1.36-.31,2.39-.58,3.08-.82.03,0,.05-.01.05-.01.03,0,.05.02.06.06.05.14.07.23.08.26,0,.02,0,.03,0,.05,0,.04-.03.07-.08.1-1.14.34-2.16.6-3.05.79.19.51.43,1.1.73,1.75,1.07-.23,1.99-.5,2.77-.82.02,0,.04-.01.06-.01.04,0,.07.03.08.08l.1.28v.04s-.03.08-.1.11c-.9.29-1.81.53-2.71.72.63,1.27,1.36,2.25,2.18,2.95.05.03.07.07.07.1,0,.01,0,.03-.01.04-.05.12-.11.22-.19.3-.03.04-.07.06-.1.06s-.07-.01-.11-.04c-.24-.17-.58-.34-1.04-.51-.75-.26-1.59-.39-2.54-.39-1.67,0-2.51.49-2.51,1.46,0,1.16,1.18,1.75,3.53,1.75.4,0,.83-.02,1.29-.06.05,0,.07.02.07.05,0,.01,0,.04,0,.07-.01.07-.03.14-.06.21-.01.09-.05.13-.1.13-.39.04-.84.06-1.33.06-1.31,0-2.3-.2-2.96-.6-.6-.37-.91-.9-.91-1.59,0-.63.29-1.12.88-1.46.51-.3,1.2-.46,2.07-.46,1.29,0,2.31.21,3.06.62-.59-.61-1.17-1.47-1.75-2.56-1.43.27-2.75.43-3.99.48-.06,0-.1-.03-.12-.1-.03-.05-.06-.17-.08-.35,1.44-.04,2.76-.19,3.98-.45-.27-.62-.51-1.2-.7-1.75-1.11.22-2.35.37-3.72.44-.06,0-.11-.03-.13-.1-.02-.06-.04-.18-.06-.35,1.15-.03,2.41-.15,3.78-.38Z"/></g></g></svg>