<?xml version="1.0" encoding="UTF-8"?><svg id="_イヤー_2" xmlns="http://www.w3.org/2000/svg" viewBox="0 0 363.5 60.6"><defs><style>.cls-1{fill:#4a9ed8;}.cls-2{fill:#58c0c8;}.cls-3{fill:#1cafdc;}</style></defs><g id="_イヤー_1-2"><g><g><path class="cls-3" d="M131.1,60h-41.7c-3.8,0-5.7-2.1-5.7-6V5.7c0-1.4,.6-2,2.7-2s2.7,.6,2.7,2v11.3h40.4c1.2,0,1.9,.6,1.9,2.9s-.6,2.9-1.9,2.9h-40.4v29c0,1.7,.8,2.5,2.4,2.5h39.6c1.3,0,2,.6,2,2.9s-.6,2.9-2,2.9Zm.4-48.8h-7c-1.5,0-2.6-1.3-2.6-2.8V2.8c0-1.6,1.2-2.8,2.6-2.8h7c1.5,0,2.6,1.3,2.6,2.8v5.5c0,1.6-1.2,2.8-2.6,2.8Zm-1-7.3c0-.3-.2-.6-.5-.6h-4.1c-.3,0-.6,.2-.6,.6v3.5c0,.3,.3,.6,.6,.6h4.1c.3,0,.5-.2,.5-.6V3.9Z"/><path class="cls-3" d="M190.9,45.6l-8.5,11.1c-1.9,2.4-3,3.3-6.2,3.3h-28.6c-1.2,0-1.9-.6-1.9-2.8s.6-2.9,1.9-2.9h27.4c1.6,0,2.5-.6,3.4-1.7l7.7-9.9c1.2-1.5,1.4-2.1,1.4-4.4v-8.7c0-1.5-.7-2.4-2.1-2.4h-40.1c-1.5,0-2-.7-2-2.9s.5-2.9,2.1-2.9h42.4c3.5,0,5.2,2,5.2,5.7v11.9c0,3.4-.2,4.4-1.9,6.6Zm-1.7-34.8h-42.9c-1.2,0-1.9-.6-1.9-2.9s.6-2.9,1.9-2.9h42.9c1.3,0,1.9,.6,1.9,2.9s-.5,2.9-1.9,2.9Z"/><path class="cls-3" d="M249.1,16.4h-9c-.7,0-1.4,0-2-.2l-34-7.3c-1.2-.3-1.8-.6-1.8-1.8s.3-3.8,1.6-3.8,.4,0,.6,0l33.2,7.1c.8,.2,1.8,.3,2.7,.3h8.7c1.2,0,1.9,.6,1.9,2.9s-.6,2.9-1.9,2.9Zm0,21.8h-9c-.7,0-1.4,0-2-.2l-34-7.2c-1.2-.3-1.8-.6-1.8-1.9s.3-3.8,1.6-3.8,.4,0,.6,0l33.2,7.1c.8,.2,1.8,.2,2.7,.2h8.7c1.2,0,1.9,.6,1.9,2.9s-.6,2.9-1.9,2.9Zm0,21.8h-9c-.7,0-1.4,0-2-.2l-34-7.2c-1.2-.3-1.8-.6-1.8-1.9s.3-3.8,1.6-3.8,.4,0,.6,0l33.2,7.1c.8,.2,1.8,.3,2.7,.3h8.7c1.2,0,1.9,.6,1.9,2.9s-.6,2.8-1.9,2.8Z"/><path class="cls-3" d="M265.8,37.5c-1.6,0-2.1-.4-2.1-1.6v-9.7c0-2-.1-2.5-1-3.8l-1.9-2.8c-.3-.4-.5-.8-.5-1,0-1,2.1-2.4,2.9-2.4s.8,.3,1.2,.8l2.3,3.2c1.4,2,1.4,2.5,1.4,5.2v10.6c0,1.1-.5,1.6-2.2,1.6Zm36,8.3l-7.9,11.5c-1.4,2.1-2.7,2.7-5.3,2.7h-20.3c-1,0-1.6-.6-1.6-2.4s.5-2.4,1.6-2.4h19.2c1.2,0,2-.1,2.6-1.1l7.6-11.1c1-1.4,1-2,1-4.1V17.4c0-1,.8-1.5,2.3-1.5s2.4,.4,2.4,1.7v22c0,2.7-.2,3.9-1.7,6.1Zm-20.8-8.3c-1.6,0-2.1-.4-2.1-1.6v-9.7c0-2-.1-2.5-1-3.8l-1.9-2.8c-.3-.4-.5-.8-.5-1,0-1,2.1-2.4,2.9-2.4s.8,.3,1.2,.8l2.3,3.2c1.4,2,1.4,2.5,1.4,5.2v10.6c0,1.1-.5,1.6-2.2,1.6Z"/><path class="cls-3" d="M361.6,40.8h-7.4c-1.2,0-2.1,0-3.3-.6l-27.7-13.1v31.4c0,1.4-.6,2-2.7,2s-2.7-.6-2.7-2V5.7c0-1.4,.6-2,2.7-2s2.7,.6,2.7,2v15.2l29.3,13.7c.7,.3,1.2,.5,2,.5h7.2c1.3,0,2,.6,2,2.9s-.6,2.7-2,2.7Zm-9.5-29.2h-2.8c-.8,0-1.5-.7-1.5-1.6v-2.9c0-.9,.6-1.6,1.5-1.6h2.8c.9,0,1.5,.7,1.5,1.6v2.9c0,.9-.6,1.6-1.5,1.6Zm10,0h-2.8c-.9,0-1.5-.7-1.5-1.6v-2.9c0-.9,.6-1.6,1.5-1.6h2.8c.8,0,1.5,.7,1.5,1.6v2.9c0,.9-.7,1.6-1.5,1.6Z"/></g><g><polyline class="cls-1" points="0 34.8 0 58.2 2.5 60.6 28.3 60.6 31 58.1 31 34.8 28 31.9 3.1 31.9"/><polyline class="cls-3" points="31 34.8 31 58.2 33.5 60.6 59.3 60.6 61.9 58.1 61.9 34.8 59 31.9 34 31.9"/><polyline class="cls-2" points="15.5 6.1 15.5 29.5 18 31.9 43.8 31.9 46.5 29.4 46.5 6.1 43.5 3.2 18.6 3.2"/></g></g></g></svg>