<?xml version="1.0" encoding="UTF-8"?><svg id="logosvg" xmlns="http://www.w3.org/2000/svg" viewBox="0 0 239.22 39.88"><defs><style>.cls-1{fill:#4a9ed8;}.cls-2{fill:#58c0c8;}.cls-3{fill:#1cafdc;}</style></defs><g id="_レイヤー_1-2"><g><polygon class="cls-1" points="18.73 21.01 10.19 21.01 1.66 21.01 0 22.58 0 30.44 0 38.31 1.66 39.88 10.19 39.88 18.73 39.88 20.38 38.31 20.38 30.44 20.38 22.58 18.73 21.01"/><polygon class="cls-2" points="28.92 2.14 20.38 2.14 11.85 2.14 10.19 3.71 10.19 11.57 10.19 19.44 11.85 21.01 20.38 21.01 28.92 21.01 30.57 19.44 30.57 11.57 30.57 3.71 28.92 2.14"/><polygon class="cls-3" points="39.11 21.01 30.57 21.01 22.04 21.01 20.38 22.58 20.38 30.44 20.38 38.31 22.04 39.88 30.57 39.88 39.11 39.88 40.77 38.31 40.77 30.44 40.77 22.58 39.11 21.01"/></g><g><path class="cls-3" d="m86.24,39.47h-27.45c-2.48,0-3.77-1.38-3.77-3.96V3.75c0-.92.39-1.33,1.8-1.33s1.76.37,1.76,1.33v7.46h26.59c.81,0,1.24.37,1.24,1.89s-.39,1.89-1.24,1.89h-26.59v19.06c0,1.1.51,1.66,1.58,1.66h26.08c.86,0,1.28.41,1.28,1.89s-.39,1.89-1.28,1.89Zm.29-32.11h-4.63c-.96,0-1.74-.83-1.74-1.87V1.87c0-1.04.77-1.87,1.74-1.87h4.63c.96,0,1.74.83,1.74,1.87v3.63c0,1.04-.77,1.87-1.74,1.87Zm-.63-4.82c0-.21-.14-.36-.34-.36h-2.7c-.19,0-.39.16-.39.36v2.28c0,.21.19.36.39.36h2.7c.19,0,.34-.16.34-.36v-2.28Z"/><path class="cls-3" d="m125.61,30.03l-5.61,7.27c-1.24,1.61-1.97,2.16-4.11,2.16h-18.84c-.81,0-1.24-.41-1.24-1.84s.39-1.89,1.24-1.89h18.03c1.07,0,1.67-.37,2.23-1.1l5.1-6.54c.77-.97.9-1.38.9-2.9v-5.75c0-1.01-.47-1.57-1.41-1.57h-26.38c-.98,0-1.33-.46-1.33-1.89s.3-1.89,1.37-1.89h27.88c2.31,0,3.43,1.29,3.43,3.77v7.83c0,2.21-.13,2.9-1.24,4.33Zm-1.11-22.92h-28.22c-.81,0-1.24-.41-1.24-1.89s.39-1.89,1.24-1.89h28.22c.86,0,1.24.41,1.24,1.89s-.34,1.89-1.24,1.89Z"/><path class="cls-3" d="m163.91,10.79h-5.95c-.43,0-.94-.05-1.28-.14l-22.35-4.79c-.77-.18-1.16-.37-1.16-1.2,0-.78.17-2.53,1.03-2.53.13,0,.26,0,.39.05l21.84,4.65c.56.14,1.2.18,1.76.18h5.74c.81,0,1.24.41,1.24,1.89s-.39,1.89-1.24,1.89Zm0,14.36h-5.95c-.43,0-.94-.05-1.28-.14l-22.35-4.74c-.77-.18-1.16-.37-1.16-1.24,0-.78.17-2.53,1.03-2.53.13,0,.26,0,.39.05l21.84,4.7c.56.14,1.2.14,1.76.14h5.74c.81,0,1.24.41,1.24,1.89s-.39,1.89-1.24,1.89Zm0,14.32h-5.95c-.43,0-.94-.05-1.28-.14l-22.35-4.74c-.77-.18-1.16-.37-1.16-1.24,0-.74.17-2.49,1.03-2.49.13,0,.26,0,.39.05l21.84,4.65c.56.14,1.2.18,1.76.18h5.74c.81,0,1.24.37,1.24,1.89,0,1.43-.39,1.84-1.24,1.84Z"/><path class="cls-3" d="m174.93,24.69c-1.07,0-1.41-.28-1.41-1.06v-6.4c0-1.29-.09-1.66-.69-2.53l-1.24-1.84c-.17-.28-.3-.51-.3-.69,0-.64,1.37-1.56,1.88-1.56.34,0,.56.23.77.55l1.5,2.12c.94,1.33.94,1.66.94,3.41v6.95c0,.74-.34,1.06-1.46,1.06Zm23.72,5.43l-5.22,7.55c-.94,1.38-1.8,1.8-3.47,1.8h-13.36c-.69,0-1.03-.41-1.03-1.56s.3-1.57,1.03-1.57h12.63c.81,0,1.28-.09,1.71-.74l5.01-7.27c.64-.92.69-1.34.69-2.67v-14.18c0-.64.51-.97,1.54-.97s1.59.28,1.59,1.1v14.5c0,1.75-.13,2.58-1.11,4Zm-13.66-5.43c-1.07,0-1.41-.28-1.41-1.06v-6.4c0-1.29-.09-1.66-.69-2.53l-1.24-1.84c-.17-.28-.3-.51-.3-.69,0-.64,1.37-1.56,1.88-1.56.34,0,.56.23.77.55l1.5,2.12c.94,1.33.94,1.66.94,3.41v6.95c0,.74-.34,1.06-1.46,1.06Z"/><path class="cls-3" d="m237.93,26.86h-4.88c-.81,0-1.37-.05-2.14-.41l-18.24-8.61v20.67c0,.92-.39,1.33-1.8,1.33s-1.76-.37-1.76-1.33V3.75c0-.92.39-1.33,1.76-1.33s1.8.37,1.8,1.33v10.03l19.27,9.02c.43.18.81.32,1.28.32h4.71c.86,0,1.28.37,1.28,1.93s-.39,1.8-1.28,1.8Zm-6.28-19.24h-1.85c-.55,0-1-.48-1-1.08v-1.89c0-.59.4-1.08,1-1.08h1.85c.6,0,1,.48,1,1.08v1.89c0,.59-.4,1.08-1,1.08Zm6.57,0h-1.85c-.6,0-1-.48-1-1.08v-1.89c0-.59.4-1.08,1-1.08h1.85c.55,0,1,.48,1,1.08v1.89c0,.59-.45,1.08-1,1.08Z"/></g></g></svg>